<?xml version="1.0" encoding="UTF-8"?>
<svg id="Layer_1" xmlns="http://www.w3.org/2000/svg" version="1.1" viewBox="0 100 841.89 295">
  <!-- Generator: Adobe Illustrator 29.1.0, SVG Export Plug-In . SVG Version: 2.1.0 Build 142)  -->
  <defs>
    <style>
      .st0 {
        fill: #231f20;
      }

      .st1 {
        stroke-width: .17px;
      }

      .st1, .st2, .st3, .st4 {
        stroke: #231f20;
      }

      .st1, .st3, .st4 {
        fill: #fff;
      }

      .st2 {
        stroke-miterlimit: 3;
        stroke-width: 24.48px;
      }

      .st2, .st5 {
        fill: none;
      }

      .st5 {
        stroke: #fff;
        stroke-width: 40.8px;
      }

      .st3 {
        stroke-width: 1.47px;
      }

      .st3, .st4 {
        stroke-miterlimit: 10;
      }

      .st4 {
        stroke-width: .85px;
      }
    </style>
  </defs>
  <rect class="st4" x="27.9" y="319.31" width="782.05" height="58.19" transform="translate(-.43 .52) rotate(-.07)"/>
  <g>
    <g>
      <g>
        <g>
          <path class="st5" d="M85.94,271.51v19.12h-47.38v-19.12h10.97v-79.96h-10.97v-19.12h51.87c21.78,0,35.74,4.49,35.74,38.07s-13.96,37.9-35.74,37.9h-15.46v23.11h10.97ZM90.43,227.62c6.32,0,10.14-1.99,10.14-17.12s-3.82-17.29-10.14-17.29h-15.46v34.41h15.46Z"/>
          <path class="st5" d="M186.19,271.51v19.12h-46.71v-19.12h10.97v-79.96h-10.97v-19.12h50.37c21.94,0,35.74,4.49,35.74,38.07,0,25.27-7.48,31.25-22.78,34.08l16.46,26.93h10.81v19.12h-28.43l-24.77-45.05h-1v25.93h10.31ZM189.84,227.29c6.15,0,10.14-1.5,10.14-16.79s-3.99-17.29-10.14-17.29h-13.96v34.08h13.96Z"/>
          <path class="st5" d="M243.21,290.63v-19.12h10.97v-79.96h-10.97v-19.12h79.96v33.08h-22.94v-12.3h-20.61v28.59h28.93v20.61h-28.93v27.26h21.78v-12.3h22.94v33.25h-81.13Z"/>
          <path class="st5" d="M457.16,191.54l5.32,79.96h8.98v19.12h-44.39v-19.12h9.64l-2.99-56.52-18.62,62.34h-19.62l-18.29-59.18-2.83,53.36h9.64v19.12h-44.72v-19.12h8.98l5.32-79.96h-11.14v-19.12h43.22l19.78,65.17,20.78-65.17h42.06v19.12h-11.14Z"/>
          <path class="st5" d="M607.94,191.54v-19.12h47.55v19.12h-10.97v54.69c0,32.92-9.64,45.88-40.06,45.88h-1.16c-31.59,0-40.06-14.63-40.06-45.88v-54.69h-11.14v-19.12h47.55v19.12h-10.97v54.69c0,16.96,2.99,25.1,14.63,25.1h1.16c10.97,0,14.63-6.98,14.63-25.1v-54.69h-11.14Z"/>
          <path class="st5" d="M785.81,191.54l5.32,79.96h8.98v19.12h-44.39v-19.12h9.64l-2.99-56.52-18.62,62.34h-19.62l-18.29-59.18-2.83,53.36h9.64v19.12h-44.72v-19.12h8.98l5.32-79.96h-11.14v-19.12h43.22l19.78,65.17,20.78-65.17h42.06v19.12h-11.14Z"/>
        </g>
        <g>
          <path class="st5" d="M503.54,261.24c.34-.53.55-.81.72-1.13,4.6-8.33,9.2-16.66,13.8-24.99,5.69-10.3,11.37-20.6,17.07-30.89.41-.73.62-1.4.19-2.62-2.05-5.75-4.03-11.52-6.04-17.29-.13-.36-.33-.69-.56-1.16-.29.48-.52.82-.72,1.18-6.32,11.45-12.64,22.91-18.95,34.36-3.94,7.14-7.89,14.28-11.8,21.45-.26.48-.52,1.35-.33,1.89,2.12,6.3,4.33,12.58,6.63,19.2ZM543.59,225.99c-.94,1.7-1.77,3.2-2.6,4.71-9.62,17.43-19.23,34.87-28.87,52.27-.45.82-.43,1.55-.04,2.67,1.79,5.05,3.52,10.13,5.31,15.19.09.26.2.52.32.77.39.83,1.58.92,2.02.13,0,0,0-.01,0-.02,10.08-18.24,20.14-36.51,30.24-54.73.49-.89.43-1.68.02-2.83-1.91-5.41-3.78-10.83-5.66-16.24-.19-.56-.43-1.1-.74-1.9ZM488.75,218.17c.29-.44.49-.72.67-1.04,5.45-9.88,10.9-19.77,16.36-29.66,4.8-8.69,9.6-17.38,14.38-26.1.25-.45.56-1.2.41-1.7-.81-2.63-1.77-5.22-2.7-7.89-.37.06-.61.06-.83.13-3.29,1.14-6.59,2.26-9.87,3.45-.43.16-.8.59-1.07,1.05-7.92,13.67-15.82,27.37-23.74,41.03-.43.74-.44,1.45-.06,2.51,1.95,5.52,3.86,11.06,5.79,16.59.17.5.4.97.67,1.62ZM489.61,145.49c-5.02,1.74-10.03,3.49-15.05,5.23-3.91,1.36-7.82,2.69-11.71,4.1-1.5.54-1.99,2.18-1.4,4.14.59,1.96,2.08,3.18,3.66,2.96.28-.04.55-.15.82-.24,17.38-6.04,34.77-12.08,52.15-18.14.53-.18,1.05-.47,1.46-.88.86-.84.99-2.18.44-3.82-.54-1.59-1.68-2.7-2.86-2.69-.62,0-1.2.21-1.78.41-8.58,2.97-17.16,5.96-25.73,8.94ZM546.49,309.47c8.62-3,17.23-5.99,25.85-8.99.5-.17,1-.34,1.45-.63,1.04-.68,1.34-2.18.83-3.86-.5-1.65-1.64-2.84-2.9-2.92-.54-.03-1.07.07-1.57.24-17.39,6.03-34.77,12.07-52.15,18.13-.53.18-1.04.48-1.46.88-.86.82-.97,2.48-.36,4.01.6,1.53,1.79,2.58,2.94,2.5.57-.04,1.12-.23,1.65-.42,8.58-2.97,17.16-5.96,25.73-8.94ZM493.67,232.59c.33-.48.49-.68.62-.93,10.35-18.75,20.69-37.5,31.03-56.27.17-.31.4-.81.29-1.14-.52-1.71-1.15-3.39-1.82-5.33-.4.67-.64,1.06-.87,1.46-3.85,6.97-7.69,13.94-11.54,20.91-6.4,11.61-12.8,23.21-19.18,34.84-.2.36-.37,1.02-.24,1.47.46,1.57,1.05,3.12,1.69,4.98ZM538.68,211.67c-.36.57-.57.86-.75,1.18-2.17,3.94-4.34,7.88-6.51,11.82-8.11,14.69-16.21,29.38-24.31,44.08-.19.35-.47.88-.36,1.25.51,1.72,1.14,3.4,1.81,5.33.48-.8.83-1.33,1.14-1.9,5.5-9.96,11-19.93,16.49-29.9,4.64-8.41,9.27-16.82,13.89-25.25.22-.41.44-1.1.31-1.59-.44-1.57-1.04-3.12-1.7-5.02ZM558.51,268.56c-4.71,8.55-9.29,16.86-14.05,25.48,7.06-2.45,13.73-4.77,20.44-7.11-2.12-6.09-4.18-12.02-6.39-18.38ZM528.85,299.19c.07.13.15.25.22.38,1.64-.57,3.3-1.07,4.9-1.74.6-.25,1.16-.77,1.54-1.42,1.82-3.14,3.57-6.36,5.34-9.56,4.69-8.5,9.38-16.99,14.05-25.51.25-.46.55-1.18.41-1.7-.43-1.63-1.07-3.22-1.76-5.19-8.33,15.1-16.51,29.93-24.69,44.75ZM496.37,159.61c-.09-.14-.18-.28-.27-.41-2.17.75-4.35,1.49-6.5,2.28-.28.1-.52.42-.69.74-3.88,7-7.76,14.01-11.61,21.05-.2.36-.36,1.03-.23,1.48.48,1.63,1.09,3.22,1.78,5.23,5.94-10.3,11.73-20.33,17.51-30.37ZM473.85,175.7c1.99-3.61,3.83-6.95,5.86-10.63-3.09,1.07-5.79,2.01-8.52,2.96.88,2.52,1.7,4.88,2.67,7.67Z"/>
          <path class="st5" d="M503.54,261.24c-2.3-6.62-4.51-12.9-6.63-19.2-.18-.54.07-1.41.33-1.89,3.91-7.17,7.86-14.31,11.8-21.45,6.32-11.45,12.63-22.91,18.95-34.36.2-.37.43-.7.72-1.18.23.47.43.8.56,1.16,2.01,5.76,3.99,11.54,6.04,17.29.44,1.22.22,1.89-.19,2.62-5.69,10.29-11.38,20.59-17.07,30.89-4.6,8.33-9.2,16.66-13.8,24.99-.17.32-.38.6-.72,1.13Z"/>
          <path class="st5" d="M543.59,225.99c.31.8.55,1.34.74,1.9,1.89,5.41,3.75,10.84,5.66,16.24.41,1.15.47,1.95-.02,2.83-10.1,18.22-20.15,36.49-30.24,54.73,0,0,0,.01,0,.02-.45.8-1.63.7-2.02-.13-.12-.25-.23-.51-.32-.77-1.79-5.06-3.52-10.14-5.31-15.19-.4-1.11-.42-1.85.04-2.67,9.64-17.4,19.25-34.84,28.87-52.27.83-1.51,1.67-3.01,2.6-4.71Z"/>
          <path class="st5" d="M488.75,218.17c-.27-.65-.49-1.12-.67-1.62-1.93-5.53-3.83-11.07-5.79-16.59-.38-1.06-.37-1.77.06-2.51,7.92-13.67,15.82-27.36,23.74-41.03.27-.46.64-.9,1.07-1.05,3.27-1.19,6.57-2.32,9.87-3.45.22-.08.46-.08.83-.13.93,2.67,1.88,5.26,2.7,7.89.15.5-.16,1.25-.41,1.7-4.78,8.72-9.58,17.4-14.38,26.1-5.45,9.89-10.9,19.77-16.36,29.66-.18.32-.38.6-.67,1.04Z"/>
          <path class="st5" d="M489.61,145.49c8.58-2.98,17.15-5.97,25.73-8.94.57-.2,1.16-.4,1.78-.41,1.17-.01,2.32,1.09,2.86,2.69.55,1.64.42,2.98-.44,3.82-.42.41-.94.7-1.46.88-17.38,6.06-34.76,12.1-52.15,18.14-.27.09-.53.2-.82.24-1.57.22-3.07-.99-3.66-2.96-.59-1.96-.1-3.59,1.4-4.14,3.89-1.41,7.8-2.74,11.71-4.1,5.02-1.75,10.03-3.49,15.05-5.23Z"/>
          <path class="st5" d="M546.49,309.47c-8.58,2.98-17.15,5.97-25.73,8.94-.53.19-1.08.38-1.65.42-1.15.08-2.33-.97-2.94-2.5-.61-1.53-.49-3.19.36-4.01.42-.4.94-.7,1.46-.88,17.38-6.06,34.76-12.1,52.15-18.13.49-.17,1.03-.27,1.57-.24,1.26.08,2.4,1.27,2.9,2.92.51,1.68.21,3.18-.83,3.86-.44.29-.95.46-1.45.63-8.61,3-17.23,5.99-25.85,8.99Z"/>
          <path class="st5" d="M493.67,232.59c-.65-1.86-1.24-3.4-1.69-4.98-.13-.45.04-1.1.24-1.47,6.38-11.63,12.78-23.23,19.18-34.84,3.84-6.97,7.69-13.94,11.54-20.91.22-.41.47-.79.87-1.46.67,1.94,1.3,3.62,1.82,5.33.1.33-.12.83-.29,1.14-10.34,18.76-20.68,37.52-31.03,56.27-.13.24-.3.45-.62.93Z"/>
          <path class="st5" d="M538.68,211.67c.66,1.9,1.27,3.44,1.7,5.02.14.49-.09,1.18-.31,1.59-4.61,8.43-9.25,16.84-13.89,25.25-5.49,9.97-10.99,19.94-16.49,29.9-.31.57-.66,1.11-1.14,1.9-.67-1.93-1.3-3.61-1.81-5.33-.11-.37.17-.9.36-1.25,8.1-14.7,16.21-29.39,24.31-44.08,2.17-3.94,4.34-7.88,6.51-11.82.18-.32.38-.61.75-1.18Z"/>
          <path class="st5" d="M558.51,268.56c2.21,6.36,4.27,12.29,6.39,18.38-6.71,2.33-13.38,4.65-20.44,7.11,4.76-8.63,9.34-16.93,14.05-25.48Z"/>
          <path class="st5" d="M496.37,159.61c-5.79,10.03-11.57,20.07-17.51,30.37-.7-2.01-1.31-3.6-1.78-5.23-.13-.46.03-1.12.23-1.48,3.85-7.04,7.73-14.05,11.61-21.05.17-.32.41-.63.69-.74,2.16-.79,4.33-1.53,6.5-2.28.09.14.18.28.27.41Z"/>
          <path class="st5" d="M473.85,175.7c-.97-2.79-1.79-5.15-2.67-7.67,2.73-.95,5.44-1.89,8.52-2.96-2.03,3.68-3.87,7.02-5.86,10.63Z"/>
        </g>
      </g>
      <g>
        <g>
          <path class="st5" d="M85.94,271.51v19.12h-47.38v-19.12h10.97v-79.96h-10.97v-19.12h51.87c21.78,0,35.74,4.49,35.74,38.07s-13.96,37.9-35.74,37.9h-15.46v23.11h10.97ZM90.43,227.62c6.32,0,10.14-1.99,10.14-17.12s-3.82-17.29-10.14-17.29h-15.46v34.41h15.46Z"/>
          <path class="st5" d="M186.19,271.51v19.12h-46.71v-19.12h10.97v-79.96h-10.97v-19.12h50.37c21.94,0,35.74,4.49,35.74,38.07,0,25.27-7.48,31.25-22.78,34.08l16.46,26.93h10.81v19.12h-28.43l-24.77-45.05h-1v25.93h10.31ZM189.84,227.29c6.15,0,10.14-1.5,10.14-16.79s-3.99-17.29-10.14-17.29h-13.96v34.08h13.96Z"/>
          <path class="st5" d="M243.21,290.63v-19.12h10.97v-79.96h-10.97v-19.12h79.96v33.08h-22.94v-12.3h-20.61v28.59h28.93v20.61h-28.93v27.26h21.78v-12.3h22.94v33.25h-81.13Z"/>
          <path class="st5" d="M457.16,191.54l5.32,79.96h8.98v19.12h-44.39v-19.12h9.64l-2.99-56.52-18.62,62.34h-19.62l-18.29-59.18-2.83,53.36h9.64v19.12h-44.72v-19.12h8.98l5.32-79.96h-11.14v-19.12h43.22l19.78,65.17,20.78-65.17h42.06v19.12h-11.14Z"/>
          <path class="st5" d="M607.94,191.54v-19.12h47.55v19.12h-10.97v54.69c0,32.92-9.64,45.88-40.06,45.88h-1.16c-31.59,0-40.06-14.63-40.06-45.88v-54.69h-11.14v-19.12h47.55v19.12h-10.97v54.69c0,16.96,2.99,25.1,14.63,25.1h1.16c10.97,0,14.63-6.98,14.63-25.1v-54.69h-11.14Z"/>
          <path class="st5" d="M785.81,191.54l5.32,79.96h8.98v19.12h-44.39v-19.12h9.64l-2.99-56.52-18.62,62.34h-19.62l-18.29-59.18-2.83,53.36h9.64v19.12h-44.72v-19.12h8.98l5.32-79.96h-11.14v-19.12h43.22l19.78,65.17,20.78-65.17h42.06v19.12h-11.14Z"/>
        </g>
        <g>
          <path class="st5" d="M503.54,261.24c.34-.53.55-.81.72-1.13,4.6-8.33,9.2-16.66,13.8-24.99,5.69-10.3,11.37-20.6,17.07-30.89.41-.73.62-1.4.19-2.62-2.05-5.75-4.03-11.52-6.04-17.29-.13-.36-.33-.69-.56-1.16-.29.48-.52.82-.72,1.18-6.32,11.45-12.64,22.91-18.95,34.36-3.94,7.14-7.89,14.28-11.8,21.45-.26.48-.52,1.35-.33,1.89,2.12,6.3,4.33,12.58,6.63,19.2ZM543.59,225.99c-.94,1.7-1.77,3.2-2.6,4.71-9.62,17.43-19.23,34.87-28.87,52.27-.45.82-.43,1.55-.04,2.67,1.79,5.05,3.52,10.13,5.31,15.19.09.26.2.52.32.77.39.83,1.58.92,2.02.13,0,0,0-.01,0-.02,10.08-18.24,20.14-36.51,30.24-54.73.49-.89.43-1.68.02-2.83-1.91-5.41-3.78-10.83-5.66-16.24-.19-.56-.43-1.1-.74-1.9ZM488.75,218.17c.29-.44.49-.72.67-1.04,5.45-9.88,10.9-19.77,16.36-29.66,4.8-8.69,9.6-17.38,14.38-26.1.25-.45.56-1.2.41-1.7-.81-2.63-1.77-5.22-2.7-7.89-.37.06-.61.06-.83.13-3.29,1.14-6.59,2.26-9.87,3.45-.43.16-.8.59-1.07,1.05-7.92,13.67-15.82,27.37-23.74,41.03-.43.74-.44,1.45-.06,2.51,1.95,5.52,3.86,11.06,5.79,16.59.17.5.4.97.67,1.62ZM489.61,145.49c-5.02,1.74-10.03,3.49-15.05,5.23-3.91,1.36-7.82,2.69-11.71,4.1-1.5.54-1.99,2.18-1.4,4.14.59,1.96,2.08,3.18,3.66,2.96.28-.04.55-.15.82-.24,17.38-6.04,34.77-12.08,52.15-18.14.53-.18,1.05-.47,1.46-.88.86-.84.99-2.18.44-3.82-.54-1.59-1.68-2.7-2.86-2.69-.62,0-1.2.21-1.78.41-8.58,2.97-17.16,5.96-25.73,8.94ZM546.49,309.47c8.62-3,17.23-5.99,25.85-8.99.5-.17,1-.34,1.45-.63,1.04-.68,1.34-2.18.83-3.86-.5-1.65-1.64-2.84-2.9-2.92-.54-.03-1.07.07-1.57.24-17.39,6.03-34.77,12.07-52.15,18.13-.53.18-1.04.48-1.46.88-.86.82-.97,2.48-.36,4.01.6,1.53,1.79,2.58,2.94,2.5.57-.04,1.12-.23,1.65-.42,8.58-2.97,17.16-5.96,25.73-8.94ZM493.67,232.59c.33-.48.49-.68.62-.93,10.35-18.75,20.69-37.5,31.03-56.27.17-.31.4-.81.29-1.14-.52-1.71-1.15-3.39-1.82-5.33-.4.67-.64,1.06-.87,1.46-3.85,6.97-7.69,13.94-11.54,20.91-6.4,11.61-12.8,23.21-19.18,34.84-.2.36-.37,1.02-.24,1.47.46,1.57,1.05,3.12,1.69,4.98ZM538.68,211.67c-.36.57-.57.86-.75,1.18-2.17,3.94-4.34,7.88-6.51,11.82-8.11,14.69-16.21,29.38-24.31,44.08-.19.35-.47.88-.36,1.25.51,1.72,1.14,3.4,1.81,5.33.48-.8.83-1.33,1.14-1.9,5.5-9.96,11-19.93,16.49-29.9,4.64-8.41,9.27-16.82,13.89-25.25.22-.41.44-1.1.31-1.59-.44-1.57-1.04-3.12-1.7-5.02ZM558.51,268.56c-4.71,8.55-9.29,16.86-14.05,25.48,7.06-2.45,13.73-4.77,20.44-7.11-2.12-6.09-4.18-12.02-6.39-18.38ZM528.85,299.19c.07.13.15.25.22.38,1.64-.57,3.3-1.07,4.9-1.74.6-.25,1.16-.77,1.54-1.42,1.82-3.14,3.57-6.36,5.34-9.56,4.69-8.5,9.38-16.99,14.05-25.51.25-.46.55-1.18.41-1.7-.43-1.63-1.07-3.22-1.76-5.19-8.33,15.1-16.51,29.93-24.69,44.75ZM496.37,159.61c-.09-.14-.18-.28-.27-.41-2.17.75-4.35,1.49-6.5,2.28-.28.1-.52.42-.69.74-3.88,7-7.76,14.01-11.61,21.05-.2.36-.36,1.03-.23,1.48.48,1.63,1.09,3.22,1.78,5.23,5.94-10.3,11.73-20.33,17.51-30.37ZM473.85,175.7c1.99-3.61,3.83-6.95,5.86-10.63-3.09,1.07-5.79,2.01-8.52,2.96.88,2.52,1.7,4.88,2.67,7.67Z"/>
          <path class="st5" d="M503.54,261.24c-2.3-6.62-4.51-12.9-6.63-19.2-.18-.54.07-1.41.33-1.89,3.91-7.17,7.86-14.31,11.8-21.45,6.32-11.45,12.63-22.91,18.95-34.36.2-.37.43-.7.72-1.18.23.47.43.8.56,1.16,2.01,5.76,3.99,11.54,6.04,17.29.44,1.22.22,1.89-.19,2.62-5.69,10.29-11.38,20.59-17.07,30.89-4.6,8.33-9.2,16.66-13.8,24.99-.17.32-.38.6-.72,1.13Z"/>
          <path class="st5" d="M543.59,225.99c.31.8.55,1.34.74,1.9,1.89,5.41,3.75,10.84,5.66,16.24.41,1.15.47,1.95-.02,2.83-10.1,18.22-20.15,36.49-30.24,54.73,0,0,0,.01,0,.02-.45.8-1.63.7-2.02-.13-.12-.25-.23-.51-.32-.77-1.79-5.06-3.52-10.14-5.31-15.19-.4-1.11-.42-1.85.04-2.67,9.64-17.4,19.25-34.84,28.87-52.27.83-1.51,1.67-3.01,2.6-4.71Z"/>
          <path class="st5" d="M488.75,218.17c-.27-.65-.49-1.12-.67-1.62-1.93-5.53-3.83-11.07-5.79-16.59-.38-1.06-.37-1.77.06-2.51,7.92-13.67,15.82-27.36,23.74-41.03.27-.46.64-.9,1.07-1.05,3.27-1.19,6.57-2.32,9.87-3.45.22-.08.46-.08.83-.13.93,2.67,1.88,5.26,2.7,7.89.15.5-.16,1.25-.41,1.7-4.78,8.72-9.58,17.4-14.38,26.1-5.45,9.89-10.9,19.77-16.36,29.66-.18.32-.38.6-.67,1.04Z"/>
          <path class="st5" d="M489.61,145.49c8.58-2.98,17.15-5.97,25.73-8.94.57-.2,1.16-.4,1.78-.41,1.17-.01,2.32,1.09,2.86,2.69.55,1.64.42,2.98-.44,3.82-.42.41-.94.7-1.46.88-17.38,6.06-34.76,12.1-52.15,18.14-.27.09-.53.2-.82.24-1.57.22-3.07-.99-3.66-2.96-.59-1.96-.1-3.59,1.4-4.14,3.89-1.41,7.8-2.74,11.71-4.1,5.02-1.75,10.03-3.49,15.05-5.23Z"/>
          <path class="st5" d="M546.49,309.47c-8.58,2.98-17.15,5.97-25.73,8.94-.53.19-1.08.38-1.65.42-1.15.08-2.33-.97-2.94-2.5-.61-1.53-.49-3.19.36-4.01.42-.4.94-.7,1.46-.88,17.38-6.06,34.76-12.1,52.15-18.13.49-.17,1.03-.27,1.57-.24,1.26.08,2.4,1.27,2.9,2.92.51,1.68.21,3.18-.83,3.86-.44.29-.95.46-1.45.63-8.61,3-17.23,5.99-25.85,8.99Z"/>
          <path class="st5" d="M493.67,232.59c-.65-1.86-1.24-3.4-1.69-4.98-.13-.45.04-1.1.24-1.47,6.38-11.63,12.78-23.23,19.18-34.84,3.84-6.97,7.69-13.94,11.54-20.91.22-.41.47-.79.87-1.46.67,1.94,1.3,3.62,1.82,5.33.1.33-.12.83-.29,1.14-10.34,18.76-20.68,37.52-31.03,56.27-.13.24-.3.45-.62.93Z"/>
          <path class="st5" d="M538.68,211.67c.66,1.9,1.27,3.44,1.7,5.02.14.49-.09,1.18-.31,1.59-4.61,8.43-9.25,16.84-13.89,25.25-5.49,9.97-10.99,19.94-16.49,29.9-.31.57-.66,1.11-1.14,1.9-.67-1.93-1.3-3.61-1.81-5.33-.11-.37.17-.9.36-1.25,8.1-14.7,16.21-29.39,24.31-44.08,2.17-3.94,4.34-7.88,6.51-11.82.18-.32.38-.61.75-1.18Z"/>
          <path class="st5" d="M558.51,268.56c2.21,6.36,4.27,12.29,6.39,18.38-6.71,2.33-13.38,4.65-20.44,7.11,4.76-8.63,9.34-16.93,14.05-25.48Z"/>
          <path class="st5" d="M496.37,159.61c-5.79,10.03-11.57,20.07-17.51,30.37-.7-2.01-1.31-3.6-1.78-5.23-.13-.46.03-1.12.23-1.48,3.85-7.04,7.73-14.05,11.61-21.05.17-.32.41-.63.69-.74,2.16-.79,4.33-1.53,6.5-2.28.09.14.18.28.27.41Z"/>
          <path class="st5" d="M473.85,175.7c-.97-2.79-1.79-5.15-2.67-7.67,2.73-.95,5.44-1.89,8.52-2.96-2.03,3.68-3.87,7.02-5.86,10.63Z"/>
        </g>
      </g>
      <g>
        <g>
          <path class="st5" d="M85.94,271.51v19.12h-47.38v-19.12h10.97v-79.96h-10.97v-19.12h51.87c21.78,0,35.74,4.49,35.74,38.07s-13.96,37.9-35.74,37.9h-15.46v23.11h10.97ZM90.43,227.62c6.32,0,10.14-1.99,10.14-17.12s-3.82-17.29-10.14-17.29h-15.46v34.41h15.46Z"/>
          <path class="st5" d="M186.19,271.51v19.12h-46.71v-19.12h10.97v-79.96h-10.97v-19.12h50.37c21.94,0,35.74,4.49,35.74,38.07,0,25.27-7.48,31.25-22.78,34.08l16.46,26.93h10.81v19.12h-28.43l-24.77-45.05h-1v25.93h10.31ZM189.84,227.29c6.15,0,10.14-1.5,10.14-16.79s-3.99-17.29-10.14-17.29h-13.96v34.08h13.96Z"/>
          <path class="st5" d="M243.21,290.63v-19.12h10.97v-79.96h-10.97v-19.12h79.96v33.08h-22.94v-12.3h-20.61v28.59h28.93v20.61h-28.93v27.26h21.78v-12.3h22.94v33.25h-81.13Z"/>
          <path class="st5" d="M457.16,191.54l5.32,79.96h8.98v19.12h-44.39v-19.12h9.64l-2.99-56.52-18.62,62.34h-19.62l-18.29-59.18-2.83,53.36h9.64v19.12h-44.72v-19.12h8.98l5.32-79.96h-11.14v-19.12h43.22l19.78,65.17,20.78-65.17h42.06v19.12h-11.14Z"/>
          <path class="st5" d="M607.94,191.54v-19.12h47.55v19.12h-10.97v54.69c0,32.92-9.64,45.88-40.06,45.88h-1.16c-31.59,0-40.06-14.63-40.06-45.88v-54.69h-11.14v-19.12h47.55v19.12h-10.97v54.69c0,16.96,2.99,25.1,14.63,25.1h1.16c10.97,0,14.63-6.98,14.63-25.1v-54.69h-11.14Z"/>
          <path class="st5" d="M785.81,191.54l5.32,79.96h8.98v19.12h-44.39v-19.12h9.64l-2.99-56.52-18.62,62.34h-19.62l-18.29-59.18-2.83,53.36h9.64v19.12h-44.72v-19.12h8.98l5.32-79.96h-11.14v-19.12h43.22l19.78,65.17,20.78-65.17h42.06v19.12h-11.14Z"/>
        </g>
        <g>
          <path class="st5" d="M503.54,261.24c.34-.53.55-.81.72-1.13,4.6-8.33,9.2-16.66,13.8-24.99,5.69-10.3,11.37-20.6,17.07-30.89.41-.73.62-1.4.19-2.62-2.05-5.75-4.03-11.52-6.04-17.29-.13-.36-.33-.69-.56-1.16-.29.48-.52.82-.72,1.18-6.32,11.45-12.64,22.91-18.95,34.36-3.94,7.14-7.89,14.28-11.8,21.45-.26.48-.52,1.35-.33,1.89,2.12,6.3,4.33,12.58,6.63,19.2ZM543.59,225.99c-.94,1.7-1.77,3.2-2.6,4.71-9.62,17.43-19.23,34.87-28.87,52.27-.45.82-.43,1.55-.04,2.67,1.79,5.05,3.52,10.13,5.31,15.19.09.26.2.52.32.77.39.83,1.58.92,2.02.13,0,0,0-.01,0-.02,10.08-18.24,20.14-36.51,30.24-54.73.49-.89.43-1.68.02-2.83-1.91-5.41-3.78-10.83-5.66-16.24-.19-.56-.43-1.1-.74-1.9ZM488.75,218.17c.29-.44.49-.72.67-1.04,5.45-9.88,10.9-19.77,16.36-29.66,4.8-8.69,9.6-17.38,14.38-26.1.25-.45.56-1.2.41-1.7-.81-2.63-1.77-5.22-2.7-7.89-.37.06-.61.06-.83.13-3.29,1.14-6.59,2.26-9.87,3.45-.43.16-.8.59-1.07,1.05-7.92,13.67-15.82,27.37-23.74,41.03-.43.74-.44,1.45-.06,2.51,1.95,5.52,3.86,11.06,5.79,16.59.17.5.4.97.67,1.62ZM489.61,145.49c-5.02,1.74-10.03,3.49-15.05,5.23-3.91,1.36-7.82,2.69-11.71,4.1-1.5.54-1.99,2.18-1.4,4.14.59,1.96,2.08,3.18,3.66,2.96.28-.04.55-.15.82-.24,17.38-6.04,34.77-12.08,52.15-18.14.53-.18,1.05-.47,1.46-.88.86-.84.99-2.18.44-3.82-.54-1.59-1.68-2.7-2.86-2.69-.62,0-1.2.21-1.78.41-8.58,2.97-17.16,5.96-25.73,8.94ZM546.49,309.47c8.62-3,17.23-5.99,25.85-8.99.5-.17,1-.34,1.45-.63,1.04-.68,1.34-2.18.83-3.86-.5-1.65-1.64-2.84-2.9-2.92-.54-.03-1.07.07-1.57.24-17.39,6.03-34.77,12.07-52.15,18.13-.53.18-1.04.48-1.46.88-.86.82-.97,2.48-.36,4.01.6,1.53,1.79,2.58,2.94,2.5.57-.04,1.12-.23,1.65-.42,8.58-2.97,17.16-5.96,25.73-8.94ZM493.67,232.59c.33-.48.49-.68.62-.93,10.35-18.75,20.69-37.5,31.03-56.27.17-.31.4-.81.29-1.14-.52-1.71-1.15-3.39-1.82-5.33-.4.67-.64,1.06-.87,1.46-3.85,6.97-7.69,13.94-11.54,20.91-6.4,11.61-12.8,23.21-19.18,34.84-.2.36-.37,1.02-.24,1.47.46,1.57,1.05,3.12,1.69,4.98ZM538.68,211.67c-.36.57-.57.86-.75,1.18-2.17,3.94-4.34,7.88-6.51,11.82-8.11,14.69-16.21,29.38-24.31,44.08-.19.35-.47.88-.36,1.25.51,1.72,1.14,3.4,1.81,5.33.48-.8.83-1.33,1.14-1.9,5.5-9.96,11-19.93,16.49-29.9,4.64-8.41,9.27-16.82,13.89-25.25.22-.41.44-1.1.31-1.59-.44-1.57-1.04-3.12-1.7-5.02ZM558.51,268.56c-4.71,8.55-9.29,16.86-14.05,25.48,7.06-2.45,13.73-4.77,20.44-7.11-2.12-6.09-4.18-12.02-6.39-18.38ZM528.85,299.19c.07.13.15.25.22.38,1.64-.57,3.3-1.07,4.9-1.74.6-.25,1.16-.77,1.54-1.42,1.82-3.14,3.57-6.36,5.34-9.56,4.69-8.5,9.38-16.99,14.05-25.51.25-.46.55-1.18.41-1.7-.43-1.63-1.07-3.22-1.76-5.19-8.33,15.1-16.51,29.93-24.69,44.75ZM496.37,159.61c-.09-.14-.18-.28-.27-.41-2.17.75-4.35,1.49-6.5,2.28-.28.1-.52.42-.69.74-3.88,7-7.76,14.01-11.61,21.05-.2.36-.36,1.03-.23,1.48.48,1.63,1.09,3.22,1.78,5.23,5.94-10.3,11.73-20.33,17.51-30.37ZM473.85,175.7c1.99-3.61,3.83-6.95,5.86-10.63-3.09,1.07-5.79,2.01-8.52,2.96.88,2.52,1.7,4.88,2.67,7.67Z"/>
          <path class="st5" d="M503.54,261.24c-2.3-6.62-4.51-12.9-6.63-19.2-.18-.54.07-1.41.33-1.89,3.91-7.17,7.86-14.31,11.8-21.45,6.32-11.45,12.63-22.91,18.95-34.36.2-.37.43-.7.72-1.18.23.47.43.8.56,1.16,2.01,5.76,3.99,11.54,6.04,17.29.44,1.22.22,1.89-.19,2.62-5.69,10.29-11.38,20.59-17.07,30.89-4.6,8.33-9.2,16.66-13.8,24.99-.17.32-.38.6-.72,1.13Z"/>
          <path class="st5" d="M543.59,225.99c.31.8.55,1.34.74,1.9,1.89,5.41,3.75,10.84,5.66,16.24.41,1.15.47,1.95-.02,2.83-10.1,18.22-20.15,36.49-30.24,54.73,0,0,0,.01,0,.02-.45.8-1.63.7-2.02-.13-.12-.25-.23-.51-.32-.77-1.79-5.06-3.52-10.14-5.31-15.19-.4-1.11-.42-1.85.04-2.67,9.64-17.4,19.25-34.84,28.87-52.27.83-1.51,1.67-3.01,2.6-4.71Z"/>
          <path class="st5" d="M488.75,218.17c-.27-.65-.49-1.12-.67-1.62-1.93-5.53-3.83-11.07-5.79-16.59-.38-1.06-.37-1.77.06-2.51,7.92-13.67,15.82-27.36,23.74-41.03.27-.46.64-.9,1.07-1.05,3.27-1.19,6.57-2.32,9.87-3.45.22-.08.46-.08.83-.13.93,2.67,1.88,5.26,2.7,7.89.15.5-.16,1.25-.41,1.7-4.78,8.72-9.58,17.4-14.38,26.1-5.45,9.89-10.9,19.77-16.36,29.66-.18.32-.38.6-.67,1.04Z"/>
          <path class="st5" d="M489.61,145.49c8.58-2.98,17.15-5.97,25.73-8.94.57-.2,1.16-.4,1.78-.41,1.17-.01,2.32,1.09,2.86,2.69.55,1.64.42,2.98-.44,3.82-.42.41-.94.7-1.46.88-17.38,6.06-34.76,12.1-52.15,18.14-.27.09-.53.2-.82.24-1.57.22-3.07-.99-3.66-2.96-.59-1.96-.1-3.59,1.4-4.14,3.89-1.41,7.8-2.74,11.71-4.1,5.02-1.75,10.03-3.49,15.05-5.23Z"/>
          <path class="st5" d="M546.49,309.47c-8.58,2.98-17.15,5.97-25.73,8.94-.53.19-1.08.38-1.65.42-1.15.08-2.33-.97-2.94-2.5-.61-1.53-.49-3.19.36-4.01.42-.4.94-.7,1.46-.88,17.38-6.06,34.76-12.1,52.15-18.13.49-.17,1.03-.27,1.57-.24,1.26.08,2.4,1.27,2.9,2.92.51,1.68.21,3.18-.83,3.86-.44.29-.95.46-1.45.63-8.61,3-17.23,5.99-25.85,8.99Z"/>
          <path class="st5" d="M493.67,232.59c-.65-1.86-1.24-3.4-1.69-4.98-.13-.45.04-1.1.24-1.47,6.38-11.63,12.78-23.23,19.18-34.84,3.84-6.97,7.69-13.94,11.54-20.91.22-.41.47-.79.87-1.46.67,1.94,1.3,3.62,1.82,5.33.1.33-.12.83-.29,1.14-10.34,18.76-20.68,37.52-31.03,56.27-.13.24-.3.45-.62.93Z"/>
          <path class="st5" d="M538.68,211.67c.66,1.9,1.27,3.44,1.7,5.02.14.49-.09,1.18-.31,1.59-4.61,8.43-9.25,16.84-13.89,25.25-5.49,9.97-10.99,19.94-16.49,29.9-.31.57-.66,1.11-1.14,1.9-.67-1.93-1.3-3.61-1.81-5.33-.11-.37.17-.9.36-1.25,8.1-14.7,16.21-29.39,24.31-44.08,2.17-3.94,4.34-7.88,6.51-11.82.18-.32.38-.61.75-1.18Z"/>
          <path class="st5" d="M558.51,268.56c2.21,6.36,4.27,12.29,6.39,18.38-6.71,2.33-13.38,4.65-20.44,7.11,4.76-8.63,9.34-16.93,14.05-25.48Z"/>
          <path class="st5" d="M496.37,159.61c-5.79,10.03-11.57,20.07-17.51,30.37-.7-2.01-1.31-3.6-1.78-5.23-.13-.46.03-1.12.23-1.48,3.85-7.04,7.73-14.05,11.61-21.05.17-.32.41-.63.69-.74,2.16-.79,4.33-1.53,6.5-2.28.09.14.18.28.27.41Z"/>
          <path class="st5" d="M473.85,175.7c-.97-2.79-1.79-5.15-2.67-7.67,2.73-.95,5.44-1.89,8.52-2.96-2.03,3.68-3.87,7.02-5.86,10.63Z"/>
        </g>
      </g>
    </g>
    <g>
      <g>
        <g>
          <path class="st2" d="M85.94,271.51v19.12h-47.38v-19.12h10.97v-79.96h-10.97v-19.12h51.87c21.78,0,35.74,4.49,35.74,38.07s-13.96,37.9-35.74,37.9h-15.46v23.11h10.97ZM90.43,227.62c6.32,0,10.14-1.99,10.14-17.12s-3.82-17.29-10.14-17.29h-15.46v34.41h15.46Z"/>
          <path class="st2" d="M186.19,271.51v19.12h-46.71v-19.12h10.97v-79.96h-10.97v-19.12h50.37c21.94,0,35.74,4.49,35.74,38.07,0,25.27-7.48,31.25-22.78,34.08l16.46,26.93h10.81v19.12h-28.43l-24.77-45.05h-1v25.93h10.31ZM189.84,227.29c6.15,0,10.14-1.5,10.14-16.79s-3.99-17.29-10.14-17.29h-13.96v34.08h13.96Z"/>
          <path class="st2" d="M243.21,290.63v-19.12h10.97v-79.96h-10.97v-19.12h79.96v33.08h-22.94v-12.3h-20.61v28.59h28.93v20.61h-28.93v27.26h21.78v-12.3h22.94v33.25h-81.13Z"/>
          <path class="st2" d="M457.16,191.54l5.32,79.96h8.98v19.12h-44.39v-19.12h9.64l-2.99-56.52-18.62,62.34h-19.62l-18.29-59.18-2.83,53.36h9.64v19.12h-44.72v-19.12h8.98l5.32-79.96h-11.14v-19.12h43.22l19.78,65.17,20.78-65.17h42.06v19.12h-11.14Z"/>
          <path class="st2" d="M607.94,191.54v-19.12h47.55v19.12h-10.97v54.69c0,32.92-9.64,45.88-40.06,45.88h-1.16c-31.59,0-40.06-14.63-40.06-45.88v-54.69h-11.14v-19.12h47.55v19.12h-10.97v54.69c0,16.96,2.99,25.1,14.63,25.1h1.16c10.97,0,14.63-6.98,14.63-25.1v-54.69h-11.14Z"/>
          <path class="st2" d="M785.81,191.54l5.32,79.96h8.98v19.12h-44.39v-19.12h9.64l-2.99-56.52-18.62,62.34h-19.62l-18.29-59.18-2.83,53.36h9.64v19.12h-44.72v-19.12h8.98l5.32-79.96h-11.14v-19.12h43.22l19.78,65.17,20.78-65.17h42.06v19.12h-11.14Z"/>
        </g>
        <g>
          <path class="st2" d="M503.54,261.24c.34-.53.55-.81.72-1.13,4.6-8.33,9.2-16.66,13.8-24.99,5.69-10.3,11.37-20.6,17.07-30.89.41-.73.62-1.4.19-2.62-2.05-5.75-4.03-11.52-6.04-17.29-.13-.36-.33-.69-.56-1.16-.29.48-.52.82-.72,1.18-6.32,11.45-12.64,22.91-18.95,34.36-3.94,7.14-7.89,14.28-11.8,21.45-.26.48-.52,1.35-.33,1.89,2.12,6.3,4.33,12.58,6.63,19.2ZM543.59,225.99c-.94,1.7-1.77,3.2-2.6,4.71-9.62,17.43-19.23,34.87-28.87,52.27-.45.82-.43,1.55-.04,2.67,1.79,5.05,3.52,10.13,5.31,15.19.09.26.2.52.32.77.39.83,1.58.92,2.02.13,0,0,0-.01,0-.02,10.08-18.24,20.14-36.51,30.24-54.73.49-.89.43-1.68.02-2.83-1.91-5.41-3.78-10.83-5.66-16.24-.19-.56-.43-1.1-.74-1.9ZM488.75,218.17c.29-.44.49-.72.67-1.04,5.45-9.88,10.9-19.77,16.36-29.66,4.8-8.69,9.6-17.38,14.38-26.1.25-.45.56-1.2.41-1.7-.81-2.63-1.77-5.22-2.7-7.89-.37.06-.61.06-.83.13-3.29,1.14-6.59,2.26-9.87,3.45-.43.16-.8.59-1.07,1.05-7.92,13.67-15.82,27.37-23.74,41.03-.43.74-.44,1.45-.06,2.51,1.95,5.52,3.86,11.06,5.79,16.59.17.5.4.97.67,1.62ZM489.61,145.49c-5.02,1.74-10.03,3.49-15.05,5.23-3.91,1.36-7.82,2.69-11.71,4.1-1.5.54-1.99,2.18-1.4,4.14.59,1.96,2.08,3.18,3.66,2.96.28-.04.55-.15.82-.24,17.38-6.04,34.77-12.08,52.15-18.14.53-.18,1.05-.47,1.46-.88.86-.84.99-2.18.44-3.82-.54-1.59-1.68-2.7-2.86-2.69-.62,0-1.2.21-1.78.41-8.58,2.97-17.16,5.96-25.73,8.94ZM546.49,309.47c8.62-3,17.23-5.99,25.85-8.99.5-.17,1-.34,1.45-.63,1.04-.68,1.34-2.18.83-3.86-.5-1.65-1.64-2.84-2.9-2.92-.54-.03-1.07.07-1.57.24-17.39,6.03-34.77,12.07-52.15,18.13-.53.18-1.04.48-1.46.88-.86.82-.97,2.48-.36,4.01.6,1.53,1.79,2.58,2.94,2.5.57-.04,1.12-.23,1.65-.42,8.58-2.97,17.16-5.96,25.73-8.94ZM493.67,232.59c.33-.48.49-.68.62-.93,10.35-18.75,20.69-37.5,31.03-56.27.17-.31.4-.81.29-1.14-.52-1.71-1.15-3.39-1.82-5.33-.4.67-.64,1.06-.87,1.46-3.85,6.97-7.69,13.94-11.54,20.91-6.4,11.61-12.8,23.21-19.18,34.84-.2.36-.37,1.02-.24,1.47.46,1.57,1.05,3.12,1.69,4.98ZM538.68,211.67c-.36.57-.57.86-.75,1.18-2.17,3.94-4.34,7.88-6.51,11.82-8.11,14.69-16.21,29.38-24.31,44.08-.19.35-.47.88-.36,1.25.51,1.72,1.14,3.4,1.81,5.33.48-.8.83-1.33,1.14-1.9,5.5-9.96,11-19.93,16.49-29.9,4.64-8.41,9.27-16.82,13.89-25.25.22-.41.44-1.1.31-1.59-.44-1.57-1.04-3.12-1.7-5.02ZM558.51,268.56c-4.71,8.55-9.29,16.86-14.05,25.48,7.06-2.45,13.73-4.77,20.44-7.11-2.12-6.09-4.18-12.02-6.39-18.38ZM528.85,299.19c.07.13.15.25.22.38,1.64-.57,3.3-1.07,4.9-1.74.6-.25,1.16-.77,1.54-1.42,1.82-3.14,3.57-6.36,5.34-9.56,4.69-8.5,9.38-16.99,14.05-25.51.25-.46.55-1.18.41-1.7-.43-1.63-1.07-3.22-1.76-5.19-8.33,15.1-16.51,29.93-24.69,44.75ZM496.37,159.61c-.09-.14-.18-.28-.27-.41-2.17.75-4.35,1.49-6.5,2.28-.28.1-.52.42-.69.74-3.88,7-7.76,14.01-11.61,21.05-.2.36-.36,1.03-.23,1.48.48,1.63,1.09,3.22,1.78,5.23,5.94-10.3,11.73-20.33,17.51-30.37ZM473.85,175.7c1.99-3.61,3.83-6.95,5.86-10.63-3.09,1.07-5.79,2.01-8.52,2.96.88,2.52,1.7,4.88,2.67,7.67Z"/>
          <path class="st2" d="M503.54,261.24c-2.3-6.62-4.51-12.9-6.63-19.2-.18-.54.07-1.41.33-1.89,3.91-7.17,7.86-14.31,11.8-21.45,6.32-11.45,12.63-22.91,18.95-34.36.2-.37.43-.7.72-1.18.23.47.43.8.56,1.16,2.01,5.76,3.99,11.54,6.04,17.29.44,1.22.22,1.89-.19,2.62-5.69,10.29-11.38,20.59-17.07,30.89-4.6,8.33-9.2,16.66-13.8,24.99-.17.32-.38.6-.72,1.13Z"/>
          <path class="st2" d="M543.59,225.99c.31.8.55,1.34.74,1.9,1.89,5.41,3.75,10.84,5.66,16.24.41,1.15.47,1.95-.02,2.83-10.1,18.22-20.15,36.49-30.24,54.73,0,0,0,.01,0,.02-.45.8-1.63.7-2.02-.13-.12-.25-.23-.51-.32-.77-1.79-5.06-3.52-10.14-5.31-15.19-.4-1.11-.42-1.85.04-2.67,9.64-17.4,19.25-34.84,28.87-52.27.83-1.51,1.67-3.01,2.6-4.71Z"/>
          <path class="st2" d="M488.75,218.17c-.27-.65-.49-1.12-.67-1.62-1.93-5.53-3.83-11.07-5.79-16.59-.38-1.06-.37-1.77.06-2.51,7.92-13.67,15.82-27.36,23.74-41.03.27-.46.64-.9,1.07-1.05,3.27-1.19,6.57-2.32,9.87-3.45.22-.08.46-.08.83-.13.93,2.67,1.88,5.26,2.7,7.89.15.5-.16,1.25-.41,1.7-4.78,8.72-9.58,17.4-14.38,26.1-5.45,9.89-10.9,19.77-16.36,29.66-.18.32-.38.6-.67,1.04Z"/>
          <path class="st2" d="M489.61,145.49c8.58-2.98,17.15-5.97,25.73-8.94.57-.2,1.16-.4,1.78-.41,1.17-.01,2.32,1.09,2.86,2.69.55,1.64.42,2.98-.44,3.82-.42.41-.94.7-1.46.88-17.38,6.06-34.76,12.1-52.15,18.14-.27.09-.53.2-.82.24-1.57.22-3.07-.99-3.66-2.96-.59-1.96-.1-3.59,1.4-4.14,3.89-1.41,7.8-2.74,11.71-4.1,5.02-1.75,10.03-3.49,15.05-5.23Z"/>
          <path class="st2" d="M546.49,309.47c-8.58,2.98-17.15,5.97-25.73,8.94-.53.19-1.08.38-1.65.42-1.15.08-2.33-.97-2.94-2.5-.61-1.53-.49-3.19.36-4.01.42-.4.94-.7,1.46-.88,17.38-6.06,34.76-12.1,52.15-18.13.49-.17,1.03-.27,1.57-.24,1.26.08,2.4,1.27,2.9,2.92.51,1.68.21,3.18-.83,3.86-.44.29-.95.46-1.45.63-8.61,3-17.23,5.99-25.85,8.99Z"/>
          <path class="st2" d="M493.67,232.59c-.65-1.86-1.24-3.4-1.69-4.98-.13-.45.04-1.1.24-1.47,6.38-11.63,12.78-23.23,19.18-34.84,3.84-6.97,7.69-13.94,11.54-20.91.22-.41.47-.79.87-1.46.67,1.94,1.3,3.62,1.82,5.33.1.33-.12.83-.29,1.14-10.34,18.76-20.68,37.52-31.03,56.27-.13.24-.3.45-.62.93Z"/>
          <path class="st2" d="M538.68,211.67c.66,1.9,1.27,3.44,1.7,5.02.14.49-.09,1.18-.31,1.59-4.61,8.43-9.25,16.84-13.89,25.25-5.49,9.97-10.99,19.94-16.49,29.9-.31.57-.66,1.11-1.14,1.9-.67-1.93-1.3-3.61-1.81-5.33-.11-.37.17-.9.36-1.25,8.1-14.7,16.21-29.39,24.31-44.08,2.17-3.94,4.34-7.88,6.51-11.82.18-.32.38-.61.75-1.18Z"/>
          <path class="st2" d="M558.51,268.56c2.21,6.36,4.27,12.29,6.39,18.38-6.71,2.33-13.38,4.65-20.44,7.11,4.76-8.63,9.34-16.93,14.05-25.48Z"/>
          <path class="st2" d="M496.37,159.61c-5.79,10.03-11.57,20.07-17.51,30.37-.7-2.01-1.31-3.6-1.78-5.23-.13-.46.03-1.12.23-1.48,3.85-7.04,7.73-14.05,11.61-21.05.17-.32.41-.63.69-.74,2.16-.79,4.33-1.53,6.5-2.28.09.14.18.28.27.41Z"/>
          <path class="st2" d="M473.85,175.7c-.97-2.79-1.79-5.15-2.67-7.67,2.73-.95,5.44-1.89,8.52-2.96-2.03,3.68-3.87,7.02-5.86,10.63Z"/>
        </g>
      </g>
      <g>
        <g>
          <path class="st1" d="M85.94,271.51v19.12h-47.38v-19.12h10.97v-79.96h-10.97v-19.12h51.87c21.78,0,35.74,4.49,35.74,38.07s-13.96,37.9-35.74,37.9h-15.46v23.11h10.97ZM90.43,227.62c6.32,0,10.14-1.99,10.14-17.12s-3.82-17.29-10.14-17.29h-15.46v34.41h15.46Z"/>
          <path class="st1" d="M186.19,271.51v19.12h-46.71v-19.12h10.97v-79.96h-10.97v-19.12h50.37c21.94,0,35.74,4.49,35.74,38.07,0,25.27-7.48,31.25-22.78,34.08l16.46,26.93h10.81v19.12h-28.43l-24.77-45.05h-1v25.93h10.31ZM189.84,227.29c6.15,0,10.14-1.5,10.14-16.79s-3.99-17.29-10.14-17.29h-13.96v34.08h13.96Z"/>
          <path class="st1" d="M243.21,290.63v-19.12h10.97v-79.96h-10.97v-19.12h79.96v33.08h-22.94v-12.3h-20.61v28.59h28.93v20.61h-28.93v27.26h21.78v-12.3h22.94v33.25h-81.13Z"/>
          <path class="st1" d="M457.16,191.54l5.32,79.96h8.98v19.12h-44.39v-19.12h9.64l-2.99-56.52-18.62,62.34h-19.62l-18.29-59.18-2.83,53.36h9.64v19.12h-44.72v-19.12h8.98l5.32-79.96h-11.14v-19.12h43.22l19.78,65.17,20.78-65.17h42.06v19.12h-11.14Z"/>
          <path class="st1" d="M607.94,191.54v-19.12h47.55v19.12h-10.97v54.69c0,32.92-9.64,45.88-40.06,45.88h-1.16c-31.59,0-40.06-14.63-40.06-45.88v-54.69h-11.14v-19.12h47.55v19.12h-10.97v54.69c0,16.96,2.99,25.1,14.63,25.1h1.16c10.97,0,14.63-6.98,14.63-25.1v-54.69h-11.14Z"/>
          <path class="st1" d="M785.81,191.54l5.32,79.96h8.98v19.12h-44.39v-19.12h9.64l-2.99-56.52-18.62,62.34h-19.62l-18.29-59.18-2.83,53.36h9.64v19.12h-44.72v-19.12h8.98l5.32-79.96h-11.14v-19.12h43.22l19.78,65.17,20.78-65.17h42.06v19.12h-11.14Z"/>
        </g>
        <g>
          <path class="st0" d="M503.54,261.24c.34-.53.55-.81.72-1.13,4.6-8.33,9.2-16.66,13.8-24.99,5.69-10.3,11.37-20.6,17.07-30.89.41-.73.62-1.4.19-2.62-2.05-5.75-4.03-11.52-6.04-17.29-.13-.36-.33-.69-.56-1.16-.29.48-.52.82-.72,1.18-6.32,11.45-12.64,22.91-18.95,34.36-3.94,7.14-7.89,14.28-11.8,21.45-.26.48-.52,1.35-.33,1.89,2.12,6.3,4.33,12.58,6.63,19.2ZM543.59,225.99c-.94,1.7-1.77,3.2-2.6,4.71-9.62,17.43-19.23,34.87-28.87,52.27-.45.82-.43,1.55-.04,2.67,1.79,5.05,3.52,10.13,5.31,15.19.09.26.2.52.32.77.39.83,1.58.92,2.02.13,0,0,0-.01,0-.02,10.08-18.24,20.14-36.51,30.24-54.73.49-.89.43-1.68.02-2.83-1.91-5.41-3.78-10.83-5.66-16.24-.19-.56-.43-1.1-.74-1.9ZM488.75,218.17c.29-.44.49-.72.67-1.04,5.45-9.88,10.9-19.77,16.36-29.66,4.8-8.69,9.6-17.38,14.38-26.1.25-.45.56-1.2.41-1.7-.81-2.63-1.77-5.22-2.7-7.89-.37.06-.61.06-.83.13-3.29,1.14-6.59,2.26-9.87,3.45-.43.16-.8.59-1.07,1.05-7.92,13.67-15.82,27.37-23.74,41.03-.43.74-.44,1.45-.06,2.51,1.95,5.52,3.86,11.06,5.79,16.59.17.5.4.97.67,1.62ZM489.61,145.49c-5.02,1.74-10.03,3.49-15.05,5.23-3.91,1.36-7.82,2.69-11.71,4.1-1.5.54-1.99,2.18-1.4,4.14.59,1.96,2.08,3.18,3.66,2.96.28-.04.55-.15.82-.24,17.38-6.04,34.77-12.08,52.15-18.14.53-.18,1.05-.47,1.46-.88.86-.84.99-2.18.44-3.82-.54-1.59-1.68-2.7-2.86-2.69-.62,0-1.2.21-1.78.41-8.58,2.97-17.16,5.96-25.73,8.94ZM546.49,309.47c8.62-3,17.23-5.99,25.85-8.99.5-.17,1-.34,1.45-.63,1.04-.68,1.34-2.18.83-3.86-.5-1.65-1.64-2.84-2.9-2.92-.54-.03-1.07.07-1.57.24-17.39,6.03-34.77,12.07-52.15,18.13-.53.18-1.04.48-1.46.88-.86.82-.97,2.48-.36,4.01.6,1.53,1.79,2.58,2.94,2.5.57-.04,1.12-.23,1.65-.42,8.58-2.97,17.16-5.96,25.73-8.94ZM493.67,232.59c.33-.48.49-.68.62-.93,10.35-18.75,20.69-37.5,31.03-56.27.17-.31.4-.81.29-1.14-.52-1.71-1.15-3.39-1.82-5.33-.4.67-.64,1.06-.87,1.46-3.85,6.97-7.69,13.94-11.54,20.91-6.4,11.61-12.8,23.21-19.18,34.84-.2.36-.37,1.02-.24,1.47.46,1.57,1.05,3.12,1.69,4.98ZM538.68,211.67c-.36.57-.57.86-.75,1.18-2.17,3.94-4.34,7.88-6.51,11.82-8.11,14.69-16.21,29.38-24.31,44.08-.19.35-.47.88-.36,1.25.51,1.72,1.14,3.4,1.81,5.33.48-.8.83-1.33,1.14-1.9,5.5-9.96,11-19.93,16.49-29.9,4.64-8.41,9.27-16.82,13.89-25.25.22-.41.44-1.1.31-1.59-.44-1.57-1.04-3.12-1.7-5.02ZM558.51,268.56c-4.71,8.55-9.29,16.86-14.05,25.48,7.06-2.45,13.73-4.77,20.44-7.11-2.12-6.09-4.18-12.02-6.39-18.38ZM528.85,299.19c.07.13.15.25.22.38,1.64-.57,3.3-1.07,4.9-1.74.6-.25,1.16-.77,1.54-1.42,1.82-3.14,3.57-6.36,5.34-9.56,4.69-8.5,9.38-16.99,14.05-25.51.25-.46.55-1.18.41-1.7-.43-1.63-1.07-3.22-1.76-5.19-8.33,15.1-16.51,29.93-24.69,44.75ZM496.37,159.61c-.09-.14-.18-.28-.27-.41-2.17.75-4.35,1.49-6.5,2.28-.28.1-.52.42-.69.74-3.88,7-7.76,14.01-11.61,21.05-.2.36-.36,1.03-.23,1.48.48,1.63,1.09,3.22,1.78,5.23,5.94-10.3,11.73-20.33,17.51-30.37ZM473.85,175.7c1.99-3.61,3.83-6.95,5.86-10.63-3.09,1.07-5.79,2.01-8.52,2.96.88,2.52,1.7,4.88,2.67,7.67Z"/>
          <path class="st3" d="M503.54,261.24c-2.3-6.62-4.51-12.9-6.63-19.2-.18-.54.07-1.41.33-1.89,3.91-7.17,7.86-14.31,11.8-21.45,6.32-11.45,12.63-22.91,18.95-34.36.2-.37.43-.7.72-1.18.23.47.43.8.56,1.16,2.01,5.76,3.99,11.54,6.04,17.29.44,1.22.22,1.89-.19,2.62-5.69,10.29-11.38,20.59-17.07,30.89-4.6,8.33-9.2,16.66-13.8,24.99-.17.32-.38.6-.72,1.13Z"/>
          <path class="st3" d="M543.59,225.99c.31.8.55,1.34.74,1.9,1.89,5.41,3.75,10.84,5.66,16.24.41,1.15.47,1.95-.02,2.83-10.1,18.22-20.15,36.49-30.24,54.73,0,0,0,.01,0,.02-.45.8-1.63.7-2.02-.13-.12-.25-.23-.51-.32-.77-1.79-5.06-3.52-10.14-5.31-15.19-.4-1.11-.42-1.85.04-2.67,9.64-17.4,19.25-34.84,28.87-52.27.83-1.51,1.67-3.01,2.6-4.71Z"/>
          <path class="st3" d="M488.75,218.17c-.27-.65-.49-1.12-.67-1.62-1.93-5.53-3.83-11.07-5.79-16.59-.38-1.06-.37-1.77.06-2.51,7.92-13.67,15.82-27.36,23.74-41.03.27-.46.64-.9,1.07-1.05,3.27-1.19,6.57-2.32,9.87-3.45.22-.08.46-.08.83-.13.93,2.67,1.88,5.26,2.7,7.89.15.5-.16,1.25-.41,1.7-4.78,8.72-9.58,17.4-14.38,26.1-5.45,9.89-10.9,19.77-16.36,29.66-.18.32-.38.6-.67,1.04Z"/>
          <path class="st3" d="M489.61,145.49c8.58-2.98,17.15-5.97,25.73-8.94.57-.2,1.16-.4,1.78-.41,1.17-.01,2.32,1.09,2.86,2.69.55,1.64.42,2.98-.44,3.82-.42.41-.94.7-1.46.88-17.38,6.06-34.76,12.1-52.15,18.14-.27.09-.53.2-.82.24-1.57.22-3.07-.99-3.66-2.96-.59-1.96-.1-3.59,1.4-4.14,3.89-1.41,7.8-2.74,11.71-4.1,5.02-1.75,10.03-3.49,15.05-5.23Z"/>
          <path class="st3" d="M546.49,309.47c-8.58,2.98-17.15,5.97-25.73,8.94-.53.19-1.08.38-1.65.42-1.15.08-2.33-.97-2.94-2.5-.61-1.53-.49-3.19.36-4.01.42-.4.94-.7,1.46-.88,17.38-6.06,34.76-12.1,52.15-18.13.49-.17,1.03-.27,1.57-.24,1.26.08,2.4,1.27,2.9,2.92.51,1.68.21,3.18-.83,3.86-.44.29-.95.46-1.45.63-8.61,3-17.23,5.99-25.85,8.99Z"/>
          <path class="st0" d="M493.67,232.59c-.65-1.86-1.24-3.4-1.69-4.98-.13-.45.04-1.1.24-1.47,6.38-11.63,12.78-23.23,19.18-34.84,3.84-6.97,7.69-13.94,11.54-20.91.22-.41.47-.79.87-1.46.67,1.94,1.3,3.62,1.82,5.33.1.33-.12.83-.29,1.14-10.34,18.76-20.68,37.52-31.03,56.27-.13.24-.3.45-.62.93Z"/>
          <path class="st0" d="M538.68,211.67c.66,1.9,1.27,3.44,1.7,5.02.14.49-.09,1.18-.31,1.59-4.61,8.43-9.25,16.84-13.89,25.25-5.49,9.97-10.99,19.94-16.49,29.9-.31.57-.66,1.11-1.14,1.9-.67-1.93-1.3-3.61-1.81-5.33-.11-.37.17-.9.36-1.25,8.1-14.7,16.21-29.39,24.31-44.08,2.17-3.94,4.34-7.88,6.51-11.82.18-.32.38-.61.75-1.18Z"/>
          <path class="st3" d="M558.51,268.56c2.21,6.36,4.27,12.29,6.39,18.38-6.71,2.33-13.38,4.65-20.44,7.11,4.76-8.63,9.34-16.93,14.05-25.48Z"/>
          <path class="st0" d="M496.37,159.61c-5.79,10.03-11.57,20.07-17.51,30.37-.7-2.01-1.31-3.6-1.78-5.23-.13-.46.03-1.12.23-1.48,3.85-7.04,7.73-14.05,11.61-21.05.17-.32.41-.63.69-.74,2.16-.79,4.33-1.53,6.5-2.28.09.14.18.28.27.41Z"/>
          <path class="st3" d="M473.85,175.7c-.97-2.79-1.79-5.15-2.67-7.67,2.73-.95,5.44-1.89,8.52-2.96-2.03,3.68-3.87,7.02-5.86,10.63Z"/>
        </g>
      </g>
    </g>
  </g>
  <g>
    <path class="st0" d="M48.25,358.96h2.96v-21.54h-2.96v-5.15h14.11c4.57,0,8.69.72,8.69,8.55v.81c0,2.55-1.21,4.7-3.31,5.73h-.09c2.73.99,4.48,3.4,4.48,6.58v1.39c-.13,8.02-5.06,8.78-9.23,8.78h-14.64v-5.15ZM58.06,345.16h4.3c.9,0,1.84-.54,1.84-3.36v-.67c0-2.64-.85-3.27-1.84-3.27h-4.3v7.3ZM62.9,358.47c1.07,0,2.28-.63,2.42-3.63v-.85c0-3.31-1.48-3.58-2.55-3.58h-4.7v8.06h4.84Z"/>
    <path class="st0" d="M120.72,364.11v-5.15h2.64l-1.07-3.81h-7.48l-1.07,3.81h2.64v5.15h-11.82v-5.15h2.42l8.2-26.69h6.76l8.2,26.69h2.42v5.15h-11.82ZM120.85,349.6l-2.33-9.72-2.28,9.72h4.61Z"/>
    <path class="st0" d="M178.19,358.96v5.15h-12.58v-5.15h2.96v-21.54h-2.96v-5.15h13.57c5.91,0,9.63,1.21,9.63,10.26,0,6.81-2.02,8.42-6.14,9.18l4.43,7.25h2.91v5.15h-7.66l-6.67-12.14h-.27v6.99h2.78ZM179.17,347.05c1.66,0,2.73-.4,2.73-4.52s-1.08-4.66-2.73-4.66h-3.76v9.18h3.76Z"/>
    <path class="st0" d="M223.65,358.96h2.96v-21.54h-2.96v-5.15h14.11c4.57,0,8.69.72,8.69,8.55v.81c0,2.55-1.21,4.7-3.31,5.73h-.09c2.73.99,4.48,3.4,4.48,6.58v1.39c-.13,8.02-5.06,8.78-9.23,8.78h-14.64v-5.15ZM233.46,345.16h4.3c.9,0,1.84-.54,1.84-3.36v-.67c0-2.64-.85-3.27-1.84-3.27h-4.3v7.3ZM238.29,358.47c1.07,0,2.28-.63,2.42-3.63v-.85c0-3.31-1.48-3.58-2.55-3.58h-4.7v8.06h4.84Z"/>
    <path class="st0" d="M281.65,364.11v-5.15h2.96v-21.54h-2.96v-5.15h21.54v8.91h-6.18v-3.31h-5.55v7.7h7.79v5.55h-7.79v7.34h5.87v-3.31h6.18v8.96h-21.85Z"/>
    <path class="st0" d="M350.4,358.96v5.15h-12.58v-5.15h2.96v-21.54h-2.96v-5.15h13.57c5.91,0,9.63,1.21,9.63,10.26,0,6.81-2.02,8.42-6.14,9.18l4.43,7.25h2.91v5.15h-7.66l-6.67-12.14h-.27v6.99h2.78ZM351.39,347.05c1.66,0,2.73-.4,2.73-4.52s-1.08-4.66-2.73-4.66h-3.76v9.18h3.76Z"/>
    <path class="st0" d="M449.56,337.55c-.45-.13-1.34-.18-2.1-.18-3.45,0-5.06,2.06-5.15,7.43v7.25c0,5.11,1.7,6.85,5.37,6.85,2.28,0,5.69-.22,8.29-.81v5.55c-2.51.54-5.24.85-8.29.85-11.87,0-12.23-8.46-12.23-12.45v-7.75c0-3.85.36-12.45,12-12.45,3.04,0,5.73.36,8.29.9v8.96h-6.18v-4.17Z"/>
    <path class="st0" d="M514.69,351.79c0,4.39-.27,12.72-12.18,12.72s-12.18-8.29-12.18-12.67v-7.3c0-4.39.27-12.67,12.18-12.67s12.18,8.33,12.18,12.72v7.21ZM497.18,351.84c0,6.13,2.06,7.08,5.33,7.08,3.76,0,5.33-1.61,5.33-7.12v-7.21c0-5.51-1.57-7.12-5.33-7.12-3.27,0-5.33.94-5.33,7.08v7.3Z"/>
    <path class="st0" d="M558.99,358.47h4.43v-4.7h6.18v10.35h-20.42v-5.15h2.96v-21.54h-2.96v-5.15h12.76v5.15h-2.96v21.05Z"/>
    <path class="st0" d="M612.91,358.47h4.43v-4.7h6.18v10.35h-20.42v-5.15h2.96v-21.54h-2.96v-5.15h12.76v5.15h-2.96v21.05Z"/>
    <path class="st0" d="M657.03,364.11v-5.15h2.96v-21.54h-2.96v-5.15h21.54v8.91h-6.18v-3.31h-5.55v7.7h7.79v5.55h-7.79v7.34h5.87v-3.31h6.18v8.96h-21.86Z"/>
    <path class="st0" d="M728.33,337.55c-.31-.04-.85-.09-1.3-.09-2.96,0-6.58-.09-6.76,6.72v7.75c0,3.81.58,6.99,5.2,6.99,1.39,0,3.27-.31,4.3-.85v-5.96h-5.19v-5.06h11.73v13.79l-.85.63c-2.37,1.61-5.73,3.05-10.08,3.05-11.29-.36-11.96-8.6-11.96-12.58v-7.52c0-4.08.27-12.54,12.58-12.54,2.82,0,5.73.36,8.51,1.08v8.24h-6.18v-3.63Z"/>
    <path class="st0" d="M770.62,364.11v-5.15h2.96v-21.54h-2.96v-5.15h21.54v8.91h-6.18v-3.31h-5.55v7.7h7.79v5.55h-7.79v7.34h5.87v-3.31h6.18v8.96h-21.85Z"/>
  </g>
</svg>