<?xml version="1.0" encoding="UTF-8"?>
<svg id="Layer_1" xmlns="http://www.w3.org/2000/svg" xmlns:xlink="http://www.w3.org/1999/xlink" version="1.1" viewBox="20 130 805 290">
  <!-- Generator: Adobe Illustrator 29.1.0, SVG Export Plug-In . SVG Version: 2.1.0 Build 142)  -->
  <defs>
    <style>
      .st0, .st1, .st2, .st3, .st4, .st5 {
        fill: none;
      }

      .st6 {
        filter: url(#outer-glow-2);
      }

      .st7 {
        filter: url(#outer-glow-1);
      }

      .st1 {
        stroke-width: 25.61px;
      }

      .st1, .st4 {
        stroke: #fff;
      }

      .st1, .st8, .st9, .st10, .st5 {
        stroke-miterlimit: 10;
      }

      .st11 {
        fill: #231f20;
      }

      .st12 {
        stroke-width: .16px;
      }

      .st12, .st13, .st2, .st3, .st8, .st9, .st10, .st5 {
        stroke: #231f20;
      }

      .st12, .st13, .st8, .st14, .st9, .st10 {
        fill: #fff;
      }

      .st13 {
        stroke-width: .17px;
      }

      .st2 {
        stroke-width: 24.48px;
      }

      .st2, .st3 {
        stroke-miterlimit: 3;
      }

      .st3 {
        stroke-width: 23.69px;
      }

      .st4 {
        stroke-width: 40.8px;
      }

      .st8 {
        stroke-width: 10px;
      }

      .st9 {
        stroke-width: 1.47px;
      }

      .st10 {
        stroke-width: 1.42px;
      }

      .st5 {
        stroke-width: 9.61px;
      }
    </style>
    <filter id="outer-glow-1" x="2.64" y="116.4" width="838.56" height="332.16" filterUnits="userSpaceOnUse">
      <feOffset dx="0" dy="0"/>
      <feGaussianBlur result="blur" stdDeviation="10"/>
      <feFlood flood-color="#caa849" flood-opacity="1"/>
      <feComposite in2="blur" operator="in"/>
      <feComposite in="SourceGraphic"/>
    </filter>
    <filter id="outer-glow-2" x="32.86" y="146.46" width="778.05" height="217.98" filterUnits="userSpaceOnUse">
      <feOffset dx="0" dy="0"/>
      <feGaussianBlur result="blur1" stdDeviation="8.53"/>
      <feFlood flood-color="#f9f9fa" flood-opacity=".75"/>
      <feComposite in2="blur1" operator="in"/>
      <feComposite in="SourceGraphic"/>
    </filter>
  </defs>
  <g>
    <g class="st7">
      <g>
        <rect class="st14" x="45.78" y="348.76" width="752.45" height="55.88" transform="translate(-.92 1.04) rotate(-.14)"/>
        <rect class="st1" x="45.78" y="348.76" width="752.45" height="55.88" transform="translate(-.92 1.04) rotate(-.14)"/>
        <rect class="st5" x="45.78" y="348.76" width="752.45" height="55.88" transform="translate(-.92 1.04) rotate(-.14)"/>
      </g>
      <g>
        <path class="st11" d="M65.35,387.27h2.84s-.03-20.69-.03-20.69h-2.84s0-4.94,0-4.94l13.55-.02c4.39,0,8.34.68,8.35,8.2v.77c0,2.45-1.15,4.52-3.17,5.51h-.09c2.62.94,4.3,3.26,4.31,6.32v1.33c-.12,7.7-4.85,8.43-8.85,8.44l-14.06.02v-4.95ZM74.75,374.01h4.13c.86,0,1.76-.52,1.76-3.23v-.65c0-2.54-.82-3.14-1.77-3.14h-4.13s0,7.02,0,7.02ZM79.41,386.78c1.03,0,2.19-.6,2.32-3.49v-.82c0-3.18-1.42-3.44-2.46-3.44h-4.52s0,7.75,0,7.75h4.64Z"/>
        <path class="st11" d="M134.95,392.13v-4.95s2.53,0,2.53,0l-1.04-3.65h-7.18s-1.03,3.67-1.03,3.67h2.54s0,4.94,0,4.94h-11.35s0-4.93,0-4.93h2.32s7.84-25.64,7.84-25.64h6.49s7.9,25.61,7.9,25.61h2.32s0,4.94,0,4.94h-11.35ZM135.06,378.19l-2.25-9.33-2.18,9.34h4.43Z"/>
        <path class="st11" d="M190.13,387.11v4.95s-12.08.01-12.08.01v-4.95s2.83,0,2.83,0l-.03-20.69h-2.84s0-4.94,0-4.94l13.03-.02c5.68,0,9.25,1.15,9.26,9.84,0,6.54-1.93,8.09-5.88,8.82l4.27,6.96h2.8s0,4.94,0,4.94h-7.35s-6.42-11.64-6.42-11.64h-.26s0,6.71,0,6.71h2.67ZM191.06,375.67c1.59,0,2.62-.39,2.62-4.35,0-3.96-1.04-4.47-2.63-4.47h-3.61s.01,8.82.01,8.82h3.61Z"/>
        <path class="st11" d="M233.79,387.06h2.84s-.03-20.69-.03-20.69h-2.84s0-4.94,0-4.94l13.55-.02c4.39,0,8.34.68,8.35,8.2v.77c0,2.45-1.15,4.52-3.17,5.51h-.09c2.62.94,4.3,3.26,4.31,6.32v1.33c-.12,7.7-4.85,8.43-8.85,8.44l-14.06.02v-4.95ZM243.19,373.8h4.13c.86,0,1.76-.52,1.76-3.23v-.65c0-2.54-.82-3.14-1.77-3.14h-4.13s0,7.02,0,7.02ZM247.85,386.57c1.03,0,2.19-.6,2.32-3.49v-.82c0-3.18-1.42-3.44-2.46-3.44h-4.52s0,7.75,0,7.75h4.64Z"/>
        <path class="st11" d="M289.49,391.94v-4.95s2.83,0,2.83,0l-.03-20.69h-2.84s0-4.94,0-4.94l20.69-.03v8.56s-5.92,0-5.92,0v-3.18s-5.34,0-5.34,0v7.4s7.49,0,7.49,0v5.33s-7.48,0-7.48,0v7.05s5.64,0,5.64,0v-3.18s5.93,0,5.93,0v8.6s-20.98.03-20.98.03Z"/>
        <path class="st11" d="M355.51,386.91v4.95s-12.08.01-12.08.01v-4.95s2.83,0,2.83,0l-.03-20.69h-2.84s0-4.94,0-4.94l13.03-.02c5.68,0,9.25,1.15,9.26,9.84,0,6.54-1.93,8.09-5.88,8.82l4.27,6.96h2.8s0,4.94,0,4.94h-7.35s-6.42-11.64-6.42-11.64h-.26s0,6.71,0,6.71h2.67ZM356.44,375.47c1.59,0,2.62-.39,2.62-4.35,0-3.96-1.04-4.47-2.63-4.47h-3.61s.01,8.82.01,8.82h3.61Z"/>
        <path class="st11" d="M450.71,366.23c-.43-.13-1.29-.17-2.02-.17-3.31,0-4.86,1.98-4.94,7.15v6.97c.01,4.9,1.65,6.58,5.18,6.57,2.19,0,5.46-.22,7.96-.78v5.33c-2.4.52-5.02.82-7.95.83-11.4.01-11.75-8.11-11.76-11.94v-7.44c-.01-3.7.32-11.96,11.5-11.97,2.92,0,5.51.34,7.96.85v8.6s-5.92,0-5.92,0v-4Z"/>
        <path class="st11" d="M513.27,379.83c0,4.21-.24,12.21-11.68,12.23s-11.71-7.94-11.71-12.16v-7.01c-.01-4.21.23-12.17,11.67-12.19,11.44-.01,11.71,7.99,11.71,12.2v6.92ZM496.45,379.9c0,5.89,1.99,6.79,5.13,6.79,3.61,0,5.12-1.55,5.11-6.84v-6.92c-.02-5.29-1.52-6.84-5.14-6.83-3.14,0-5.12.91-5.11,6.8v7.01Z"/>
        <path class="st11" d="M555.82,386.19h4.26s0-4.52,0-4.52h5.93s.01,9.93.01,9.93l-19.61.02v-4.95s2.83,0,2.83,0l-.03-20.69h-2.84s0-4.94,0-4.94l12.26-.02v4.95s-2.83,0-2.83,0l.02,20.21Z"/>
        <path class="st11" d="M607.6,386.13h4.26s0-4.52,0-4.52h5.93s.01,9.93.01,9.93l-19.61.02v-4.95s2.83,0,2.83,0l-.03-20.69h-2.84s0-4.94,0-4.94l12.26-.02v4.95s-2.83,0-2.83,0l.02,20.21Z"/>
        <path class="st11" d="M649.98,391.49v-4.95s2.83,0,2.83,0l-.03-20.69h-2.84s0-4.94,0-4.94l20.69-.03v8.56s-5.92,0-5.92,0v-3.18s-5.34,0-5.34,0v7.4s7.49,0,7.49,0v5.33s-7.48,0-7.48,0v7.05s5.64,0,5.64,0v-3.18s5.93,0,5.93,0v8.6s-20.98.03-20.98.03Z"/>
        <path class="st11" d="M718.42,365.91c-.3-.04-.82-.08-1.25-.08-2.84,0-6.32-.08-6.49,6.46v7.44c.01,3.66.58,6.71,5.01,6.7,1.33,0,3.14-.3,4.13-.82v-5.72s-5,0-5,0v-4.86s11.26-.01,11.26-.01l.02,13.25-.82.6c-2.28,1.55-5.5,2.93-9.67,2.94-10.84-.33-11.49-8.24-11.5-12.07v-7.22c-.01-3.91.23-12.04,12.06-12.06,2.71,0,5.51.34,8.17,1.02v7.91s-5.93,0-5.93,0v-3.48Z"/>
        <path class="st11" d="M759.05,391.36v-4.95s2.83,0,2.83,0l-.03-20.69h-2.84s0-4.94,0-4.94l20.69-.03v8.56s-5.92,0-5.92,0v-3.18s-5.34,0-5.34,0v7.4s7.49,0,7.49,0v5.33s-7.48,0-7.48,0v7.05s5.64,0,5.64,0v-3.18s5.93,0,5.93,0v8.6s-20.98.03-20.98.03Z"/>
      </g>
      <g class="st6">
        <g>
          <g>
            <g>
              <path class="st3" d="M99.31,298.04v18.5h-45.84v-18.5h10.62v-77.37h-10.62v-18.5h50.18c21.07,0,34.58,4.34,34.58,36.83s-13.51,36.67-34.58,36.67h-14.96v22.36h10.62ZM103.65,255.58c6.11,0,9.81-1.93,9.81-16.57s-3.7-16.73-9.81-16.73h-14.96v33.29h14.96Z"/>
              <path class="st3" d="M196.3,298.04v18.5h-45.2v-18.5h10.62v-77.37h-10.62v-18.5h48.74c21.23,0,34.58,4.34,34.58,36.83,0,24.45-7.24,30.24-22.04,32.97l15.92,26.06h10.45v18.5h-27.5l-23.97-43.59h-.96v25.09h9.97ZM199.84,255.26c5.95,0,9.81-1.45,9.81-16.25s-3.86-16.73-9.81-16.73h-13.51v32.97h13.51Z"/>
              <path class="st3" d="M251.47,316.54v-18.5h10.62v-77.37h-10.62v-18.5h77.37v32.01h-22.2v-11.9h-19.94v27.67h27.99v19.94h-27.99v26.38h21.07v-11.9h22.2v32.17h-78.49Z"/>
              <path class="st3" d="M458.48,220.68l5.15,77.37h8.69v18.5h-42.95v-18.5h9.33l-2.89-54.69-18.01,60.32h-18.98l-17.69-57.26-2.73,51.63h9.33v18.5h-43.27v-18.5h8.69l5.15-77.37h-10.78v-18.5h41.82l19.14,63.05,20.11-63.05h40.69v18.5h-10.78Z"/>
              <path class="st3" d="M604.37,220.68v-18.5h46v18.5h-10.62v52.92c0,31.85-9.33,44.39-38.76,44.39h-1.12c-30.56,0-38.76-14.15-38.76-44.39v-52.92h-10.78v-18.5h46v18.5h-10.62v52.92c0,16.41,2.89,24.29,14.15,24.29h1.12c10.62,0,14.15-6.76,14.15-24.29v-52.92h-10.78Z"/>
              <path class="st3" d="M776.47,220.68l5.15,77.37h8.69v18.5h-42.95v-18.5h9.33l-2.9-54.69-18.01,60.32h-18.98l-17.69-57.26-2.73,51.63h9.33v18.5h-43.27v-18.5h8.69l5.15-77.37h-10.78v-18.5h41.82l19.14,63.05,20.1-63.05h40.69v18.5h-10.78Z"/>
            </g>
            <g>
              <path class="st3" d="M503.36,288.11c.33-.51.53-.79.7-1.09,4.45-8.06,8.9-16.12,13.35-24.18,5.5-9.97,11-19.94,16.51-29.89.39-.71.6-1.35.18-2.53-1.98-5.56-3.9-11.15-5.84-16.73-.12-.35-.32-.67-.54-1.12-.28.46-.5.79-.69,1.14-6.11,11.08-12.23,22.16-18.34,33.24-3.81,6.91-7.63,13.81-11.42,20.76-.25.46-.5,1.3-.32,1.83,2.05,6.1,4.19,12.17,6.42,18.58ZM542.11,254c-.91,1.64-1.71,3.1-2.52,4.56-9.31,16.86-18.61,33.74-27.93,50.57-.44.79-.42,1.5-.04,2.58,1.74,4.89,3.41,9.8,5.14,14.7.09.25.2.5.31.74.38.8,1.53.89,1.96.12,0,0,0-.01,0-.02,9.75-17.65,19.49-35.32,29.26-52.96.47-.86.41-1.62.02-2.74-1.85-5.23-3.65-10.48-5.48-15.72-.19-.54-.41-1.07-.72-1.84ZM489.05,246.44c.28-.43.48-.7.65-1.01,5.28-9.56,10.55-19.13,15.83-28.69,4.64-8.41,9.29-16.82,13.91-25.25.24-.44.54-1.16.39-1.65-.79-2.54-1.71-5.05-2.61-7.63-.35.05-.59.05-.8.13-3.19,1.1-6.38,2.19-9.55,3.34-.41.15-.77.57-1.03,1.02-7.66,13.23-15.3,26.48-22.97,39.7-.42.72-.42,1.4-.06,2.43,1.89,5.34,3.73,10.7,5.6,16.05.17.48.39.94.65,1.57ZM489.89,176.11c-4.85,1.69-9.71,3.37-14.56,5.06-3.78,1.31-7.57,2.6-11.33,3.97-1.45.53-1.92,2.11-1.35,4,.57,1.9,2.01,3.07,3.54,2.86.27-.04.53-.14.79-.23,16.82-5.85,33.64-11.69,50.45-17.55.51-.18,1.01-.45,1.42-.85.83-.82.96-2.11.42-3.7-.52-1.54-1.63-2.61-2.76-2.6-.6,0-1.17.2-1.72.39-8.3,2.87-16.6,5.76-24.9,8.65ZM544.92,334.77c8.34-2.9,16.67-5.79,25.01-8.7.48-.17.97-.33,1.4-.61,1.01-.66,1.3-2.11.8-3.74-.49-1.6-1.59-2.75-2.81-2.83-.52-.03-1.04.07-1.52.23-16.82,5.83-33.65,11.68-50.46,17.54-.51.18-1.01.46-1.42.85-.83.79-.94,2.4-.35,3.88.58,1.48,1.73,2.49,2.84,2.42.55-.04,1.08-.22,1.6-.4,8.3-2.88,16.6-5.76,24.9-8.65ZM493.81,260.39c.31-.46.48-.66.6-.9,10.01-18.14,20.02-36.29,30.02-54.44.16-.3.38-.78.28-1.1-.51-1.65-1.11-3.28-1.76-5.16-.39.65-.62,1.02-.84,1.42-3.72,6.74-7.44,13.49-11.16,20.23-6.19,11.23-12.39,22.46-18.56,33.71-.19.35-.35.98-.23,1.42.44,1.52,1.01,3.01,1.64,4.81ZM537.36,240.14c-.35.55-.55.83-.72,1.15-2.1,3.81-4.2,7.63-6.3,11.44-7.84,14.21-15.69,28.42-23.52,42.65-.19.34-.46.85-.35,1.21.49,1.66,1.11,3.29,1.76,5.16.46-.77.8-1.29,1.1-1.84,5.32-9.64,10.64-19.28,15.95-28.93,4.48-8.14,8.97-16.27,13.44-24.44.21-.39.43-1.06.3-1.53-.42-1.52-1.01-3.02-1.65-4.85ZM556.55,295.19c-4.56,8.27-8.99,16.31-13.6,24.66,6.83-2.37,13.28-4.62,19.78-6.87-2.05-5.89-4.04-11.63-6.18-17.78ZM527.85,324.82c.07.12.14.25.22.37,1.58-.55,3.19-1.03,4.74-1.69.58-.25,1.12-.75,1.49-1.37,1.76-3.04,3.45-6.16,5.16-9.25,4.54-8.22,9.07-16.44,13.59-24.68.24-.44.53-1.14.39-1.65-.42-1.57-1.04-3.11-1.7-5.02-8.06,14.61-15.98,28.95-23.89,43.3ZM496.42,189.77c-.09-.13-.17-.27-.26-.4-2.1.73-4.21,1.44-6.29,2.21-.27.1-.5.41-.67.71-3.75,6.77-7.5,13.56-11.23,20.37-.19.35-.35.99-.22,1.44.46,1.57,1.05,3.12,1.73,5.06,5.75-9.97,11.35-19.67,16.95-29.38ZM474.64,205.34c1.92-3.49,3.7-6.72,5.67-10.29-2.99,1.04-5.61,1.95-8.25,2.87.85,2.44,1.64,4.72,2.58,7.42Z"/>
              <path class="st3" d="M503.36,288.11c-2.23-6.41-4.36-12.48-6.42-18.58-.18-.53.07-1.37.32-1.83,3.79-6.94,7.61-13.84,11.42-20.76,6.11-11.08,12.22-22.16,18.34-33.24.2-.35.41-.68.69-1.14.22.45.42.77.54,1.12,1.95,5.58,3.86,11.16,5.84,16.73.42,1.18.21,1.82-.18,2.53-5.51,9.96-11.01,19.93-16.51,29.89-4.45,8.06-8.9,16.12-13.35,24.18-.17.31-.37.58-.7,1.09Z"/>
              <path class="st3" d="M542.11,254c.3.77.53,1.3.72,1.84,1.83,5.24,3.63,10.49,5.48,15.72.39,1.12.46,1.88-.02,2.74-9.77,17.63-19.5,35.31-29.26,52.96,0,0,0,.01,0,.02-.43.77-1.58.68-1.96-.12-.11-.24-.22-.49-.31-.74-1.73-4.89-3.4-9.81-5.14-14.7-.38-1.08-.4-1.79.04-2.58,9.33-16.84,18.63-33.71,27.93-50.57.8-1.46,1.61-2.91,2.52-4.56Z"/>
              <path class="st3" d="M489.05,246.44c-.26-.63-.48-1.09-.65-1.57-1.87-5.35-3.71-10.71-5.6-16.05-.36-1.03-.36-1.71.06-2.43,7.67-13.22,15.31-26.47,22.97-39.7.26-.45.62-.87,1.03-1.02,3.17-1.15,6.36-2.24,9.55-3.34.21-.07.45-.07.8-.13.9,2.58,1.82,5.09,2.61,7.63.15.48-.15,1.21-.39,1.65-4.62,8.43-9.27,16.84-13.91,25.25-5.28,9.56-10.55,19.13-15.83,28.69-.17.31-.37.58-.65,1.01Z"/>
              <path class="st3" d="M489.89,176.11c8.3-2.88,16.6-5.77,24.9-8.65.55-.19,1.12-.39,1.72-.39,1.13-.01,2.24,1.06,2.76,2.6.53,1.59.41,2.88-.42,3.7-.41.4-.91.67-1.42.85-16.81,5.86-33.63,11.71-50.45,17.55-.26.09-.52.19-.79.23-1.52.21-2.97-.96-3.54-2.86-.57-1.9-.1-3.48,1.35-4,3.76-1.37,7.55-2.65,11.33-3.97,4.85-1.69,9.71-3.37,14.56-5.06Z"/>
              <path class="st3" d="M544.92,334.77c-8.3,2.89-16.6,5.77-24.9,8.65-.52.18-1.04.37-1.6.4-1.11.08-2.26-.94-2.84-2.42-.59-1.48-.48-3.09.35-3.88.41-.39.91-.67,1.42-.85,16.81-5.86,33.64-11.71,50.46-17.54.48-.16.99-.26,1.52-.23,1.22.08,2.32,1.23,2.81,2.83.49,1.63.2,3.08-.8,3.74-.43.28-.92.44-1.4.61-8.33,2.9-16.67,5.8-25.01,8.7Z"/>
              <path class="st3" d="M493.81,260.39c-.63-1.8-1.2-3.29-1.64-4.81-.13-.44.04-1.07.23-1.42,6.17-11.25,12.37-22.48,18.56-33.71,3.72-6.75,7.44-13.49,11.16-20.23.22-.39.45-.76.84-1.42.65,1.87,1.25,3.5,1.76,5.16.1.32-.12.8-.28,1.1-10,18.16-20.01,36.3-30.02,54.44-.13.23-.29.43-.6.9Z"/>
              <path class="st3" d="M537.36,240.14c.64,1.84,1.22,3.33,1.65,4.85.13.47-.08,1.14-.3,1.53-4.46,8.16-8.95,16.3-13.44,24.44-5.32,9.65-10.63,19.29-15.95,28.93-.3.55-.64,1.07-1.1,1.84-.65-1.86-1.26-3.5-1.76-5.16-.11-.35.17-.87.35-1.21,7.83-14.22,15.68-28.43,23.52-42.65,2.1-3.81,4.2-7.63,6.3-11.44.17-.31.37-.59.72-1.15Z"/>
              <path class="st3" d="M556.55,295.19c2.14,6.15,4.13,11.89,6.18,17.78-6.49,2.26-12.95,4.5-19.78,6.87,4.6-8.35,9.03-16.38,13.6-24.66Z"/>
              <path class="st3" d="M496.42,189.77c-5.6,9.71-11.2,19.41-16.95,29.38-.68-1.94-1.27-3.49-1.73-5.06-.13-.44.03-1.08.22-1.44,3.73-6.81,7.47-13.59,11.23-20.37.17-.31.4-.61.67-.71,2.09-.77,4.19-1.48,6.29-2.21.09.13.17.27.26.4Z"/>
              <path class="st3" d="M474.64,205.34c-.94-2.7-1.73-4.98-2.58-7.42,2.64-.92,5.26-1.83,8.25-2.87-1.96,3.56-3.74,6.8-5.67,10.29Z"/>
            </g>
          </g>
          <g>
            <g>
              <path class="st12" d="M99.31,298.04v18.5h-45.84v-18.5h10.62v-77.37h-10.62v-18.5h50.18c21.07,0,34.58,4.34,34.58,36.83s-13.51,36.67-34.58,36.67h-14.96v22.36h10.62ZM103.65,255.58c6.11,0,9.81-1.93,9.81-16.57s-3.7-16.73-9.81-16.73h-14.96v33.29h14.96Z"/>
              <path class="st12" d="M196.3,298.04v18.5h-45.2v-18.5h10.62v-77.37h-10.62v-18.5h48.74c21.23,0,34.58,4.34,34.58,36.83,0,24.45-7.24,30.24-22.04,32.97l15.92,26.06h10.45v18.5h-27.5l-23.97-43.59h-.96v25.09h9.97ZM199.84,255.26c5.95,0,9.81-1.45,9.81-16.25s-3.86-16.73-9.81-16.73h-13.51v32.97h13.51Z"/>
              <path class="st12" d="M251.47,316.54v-18.5h10.62v-77.37h-10.62v-18.5h77.37v32.01h-22.2v-11.9h-19.94v27.67h27.99v19.94h-27.99v26.38h21.07v-11.9h22.2v32.17h-78.49Z"/>
              <path class="st12" d="M458.48,220.68l5.15,77.37h8.69v18.5h-42.95v-18.5h9.33l-2.89-54.69-18.01,60.32h-18.98l-17.69-57.26-2.73,51.63h9.33v18.5h-43.27v-18.5h8.69l5.15-77.37h-10.78v-18.5h41.82l19.14,63.05,20.11-63.05h40.69v18.5h-10.78Z"/>
              <path class="st12" d="M604.37,220.68v-18.5h46v18.5h-10.62v52.92c0,31.85-9.33,44.39-38.76,44.39h-1.12c-30.56,0-38.76-14.15-38.76-44.39v-52.92h-10.78v-18.5h46v18.5h-10.62v52.92c0,16.41,2.89,24.29,14.15,24.29h1.12c10.62,0,14.15-6.76,14.15-24.29v-52.92h-10.78Z"/>
              <path class="st12" d="M776.47,220.68l5.15,77.37h8.69v18.5h-42.95v-18.5h9.33l-2.9-54.69-18.01,60.32h-18.98l-17.69-57.26-2.73,51.63h9.33v18.5h-43.27v-18.5h8.69l5.15-77.37h-10.78v-18.5h41.82l19.14,63.05,20.1-63.05h40.69v18.5h-10.78Z"/>
            </g>
            <g>
              <path class="st11" d="M503.36,288.11c.33-.51.53-.79.7-1.09,4.45-8.06,8.9-16.12,13.35-24.18,5.5-9.97,11-19.94,16.51-29.89.39-.71.6-1.35.18-2.53-1.98-5.56-3.9-11.15-5.84-16.73-.12-.35-.32-.67-.54-1.12-.28.46-.5.79-.69,1.14-6.11,11.08-12.23,22.16-18.34,33.24-3.81,6.91-7.63,13.81-11.42,20.76-.25.46-.5,1.3-.32,1.83,2.05,6.1,4.19,12.17,6.42,18.58ZM542.11,254c-.91,1.64-1.71,3.1-2.52,4.56-9.31,16.86-18.61,33.74-27.93,50.57-.44.79-.42,1.5-.04,2.58,1.74,4.89,3.41,9.8,5.14,14.7.09.25.2.5.31.74.38.8,1.53.89,1.96.12,0,0,0-.01,0-.02,9.75-17.65,19.49-35.32,29.26-52.96.47-.86.41-1.62.02-2.74-1.85-5.23-3.65-10.48-5.48-15.72-.19-.54-.41-1.07-.72-1.84ZM489.05,246.44c.28-.43.48-.7.65-1.01,5.28-9.56,10.55-19.13,15.83-28.69,4.64-8.41,9.29-16.82,13.91-25.25.24-.44.54-1.16.39-1.65-.79-2.54-1.71-5.05-2.61-7.63-.35.05-.59.05-.8.13-3.19,1.1-6.38,2.19-9.55,3.34-.41.15-.77.57-1.03,1.02-7.66,13.23-15.3,26.48-22.97,39.7-.42.72-.42,1.4-.06,2.43,1.89,5.34,3.73,10.7,5.6,16.05.17.48.39.94.65,1.57ZM489.89,176.11c-4.85,1.69-9.71,3.37-14.56,5.06-3.78,1.31-7.57,2.6-11.33,3.97-1.45.53-1.92,2.11-1.35,4,.57,1.9,2.01,3.07,3.54,2.86.27-.04.53-.14.79-.23,16.82-5.85,33.64-11.69,50.45-17.55.51-.18,1.01-.45,1.42-.85.83-.82.96-2.11.42-3.7-.52-1.54-1.63-2.61-2.76-2.6-.6,0-1.17.2-1.72.39-8.3,2.87-16.6,5.76-24.9,8.65ZM544.92,334.77c8.34-2.9,16.67-5.79,25.01-8.7.48-.17.97-.33,1.4-.61,1.01-.66,1.3-2.11.8-3.74-.49-1.6-1.59-2.75-2.81-2.83-.52-.03-1.04.07-1.52.23-16.82,5.83-33.65,11.68-50.46,17.54-.51.18-1.01.46-1.42.85-.83.79-.94,2.4-.35,3.88.58,1.48,1.73,2.49,2.84,2.42.55-.04,1.08-.22,1.6-.4,8.3-2.88,16.6-5.76,24.9-8.65ZM493.81,260.39c.31-.46.48-.66.6-.9,10.01-18.14,20.02-36.29,30.02-54.44.16-.3.38-.78.28-1.1-.51-1.65-1.11-3.28-1.76-5.16-.39.65-.62,1.02-.84,1.42-3.72,6.74-7.44,13.49-11.16,20.23-6.19,11.23-12.39,22.46-18.56,33.71-.19.35-.35.98-.23,1.42.44,1.52,1.01,3.01,1.64,4.81ZM537.36,240.14c-.35.55-.55.83-.72,1.15-2.1,3.81-4.2,7.63-6.3,11.44-7.84,14.21-15.69,28.42-23.52,42.65-.19.34-.46.85-.35,1.21.49,1.66,1.11,3.29,1.76,5.16.46-.77.8-1.29,1.1-1.84,5.32-9.64,10.64-19.28,15.95-28.93,4.48-8.14,8.97-16.27,13.44-24.44.21-.39.43-1.06.3-1.53-.42-1.52-1.01-3.02-1.65-4.85ZM556.55,295.19c-4.56,8.27-8.99,16.31-13.6,24.66,6.83-2.37,13.28-4.62,19.78-6.87-2.05-5.89-4.04-11.63-6.18-17.78ZM527.85,324.82c.07.12.14.25.22.37,1.58-.55,3.19-1.03,4.74-1.69.58-.25,1.12-.75,1.49-1.37,1.76-3.04,3.45-6.16,5.16-9.25,4.54-8.22,9.07-16.44,13.59-24.68.24-.44.53-1.14.39-1.65-.42-1.57-1.04-3.11-1.7-5.02-8.06,14.61-15.98,28.95-23.89,43.3ZM496.42,189.77c-.09-.13-.17-.27-.26-.4-2.1.73-4.21,1.44-6.29,2.21-.27.1-.5.41-.67.71-3.75,6.77-7.5,13.56-11.23,20.37-.19.35-.35.99-.22,1.44.46,1.57,1.05,3.12,1.73,5.06,5.75-9.97,11.35-19.67,16.95-29.38ZM474.64,205.34c1.92-3.49,3.7-6.72,5.67-10.29-2.99,1.04-5.61,1.95-8.25,2.87.85,2.44,1.64,4.72,2.58,7.42Z"/>
              <path class="st10" d="M503.36,288.11c-2.23-6.41-4.36-12.48-6.42-18.58-.18-.53.07-1.37.32-1.83,3.79-6.94,7.61-13.84,11.42-20.76,6.11-11.08,12.22-22.16,18.34-33.24.2-.35.41-.68.69-1.14.22.45.42.77.54,1.12,1.95,5.58,3.86,11.16,5.84,16.73.42,1.18.21,1.82-.18,2.53-5.51,9.96-11.01,19.93-16.51,29.89-4.45,8.06-8.9,16.12-13.35,24.18-.17.31-.37.58-.7,1.09Z"/>
              <path class="st10" d="M542.11,254c.3.77.53,1.3.72,1.84,1.83,5.24,3.63,10.49,5.48,15.72.39,1.12.46,1.88-.02,2.74-9.77,17.63-19.5,35.31-29.26,52.96,0,0,0,.01,0,.02-.43.77-1.58.68-1.96-.12-.11-.24-.22-.49-.31-.74-1.73-4.89-3.4-9.81-5.14-14.7-.38-1.08-.4-1.79.04-2.58,9.33-16.84,18.63-33.71,27.93-50.57.8-1.46,1.61-2.91,2.52-4.56Z"/>
              <path class="st10" d="M489.05,246.44c-.26-.63-.48-1.09-.65-1.57-1.87-5.35-3.71-10.71-5.6-16.05-.36-1.03-.36-1.71.06-2.43,7.67-13.22,15.31-26.47,22.97-39.7.26-.45.62-.87,1.03-1.02,3.17-1.15,6.36-2.24,9.55-3.34.21-.07.45-.07.8-.13.9,2.58,1.82,5.09,2.61,7.63.15.48-.15,1.21-.39,1.65-4.62,8.43-9.27,16.84-13.91,25.25-5.28,9.56-10.55,19.13-15.83,28.69-.17.31-.37.58-.65,1.01Z"/>
              <path class="st10" d="M489.89,176.11c8.3-2.88,16.6-5.77,24.9-8.65.55-.19,1.12-.39,1.72-.39,1.13-.01,2.24,1.06,2.76,2.6.53,1.59.41,2.88-.42,3.7-.41.4-.91.67-1.42.85-16.81,5.86-33.63,11.71-50.45,17.55-.26.09-.52.19-.79.23-1.52.21-2.97-.96-3.54-2.86-.57-1.9-.1-3.48,1.35-4,3.76-1.37,7.55-2.65,11.33-3.97,4.85-1.69,9.71-3.37,14.56-5.06Z"/>
              <path class="st10" d="M544.92,334.77c-8.3,2.89-16.6,5.77-24.9,8.65-.52.18-1.04.37-1.6.4-1.11.08-2.26-.94-2.84-2.42-.59-1.48-.48-3.09.35-3.88.41-.39.91-.67,1.42-.85,16.81-5.86,33.64-11.71,50.46-17.54.48-.16.99-.26,1.52-.23,1.22.08,2.32,1.23,2.81,2.83.49,1.63.2,3.08-.8,3.74-.43.28-.92.44-1.4.61-8.33,2.9-16.67,5.8-25.01,8.7Z"/>
              <path class="st11" d="M493.81,260.39c-.63-1.8-1.2-3.29-1.64-4.81-.13-.44.04-1.07.23-1.42,6.17-11.25,12.37-22.48,18.56-33.71,3.72-6.75,7.44-13.49,11.16-20.23.22-.39.45-.76.84-1.42.65,1.87,1.25,3.5,1.76,5.16.1.32-.12.8-.28,1.1-10,18.16-20.01,36.3-30.02,54.44-.13.23-.29.43-.6.9Z"/>
              <path class="st11" d="M537.36,240.14c.64,1.84,1.22,3.33,1.65,4.85.13.47-.08,1.14-.3,1.53-4.46,8.16-8.95,16.3-13.44,24.44-5.32,9.65-10.63,19.29-15.95,28.93-.3.55-.64,1.07-1.1,1.84-.65-1.86-1.26-3.5-1.76-5.16-.11-.35.17-.87.35-1.21,7.83-14.22,15.68-28.43,23.52-42.65,2.1-3.81,4.2-7.63,6.3-11.44.17-.31.37-.59.72-1.15Z"/>
              <path class="st10" d="M556.55,295.19c2.14,6.15,4.13,11.89,6.18,17.78-6.49,2.26-12.95,4.5-19.78,6.87,4.6-8.35,9.03-16.38,13.6-24.66Z"/>
              <path class="st11" d="M496.42,189.77c-5.6,9.71-11.2,19.41-16.95,29.38-.68-1.94-1.27-3.49-1.73-5.06-.13-.44.03-1.08.22-1.44,3.73-6.81,7.47-13.59,11.23-20.37.17-.31.4-.61.67-.71,2.09-.77,4.19-1.48,6.29-2.21.09.13.17.27.26.4Z"/>
              <path class="st10" d="M474.64,205.34c-.94-2.7-1.73-4.98-2.58-7.42,2.64-.92,5.26-1.83,8.25-2.87-1.96,3.56-3.74,6.8-5.67,10.29Z"/>
            </g>
          </g>
          <g>
            <g>
              <path class="st0" d="M99.31,298.04v18.5h-45.84v-18.5h10.62v-77.37h-10.62v-18.5h50.18c21.07,0,34.58,4.34,34.58,36.83s-13.51,36.67-34.58,36.67h-14.96v22.36h10.62ZM103.65,255.58c6.11,0,9.81-1.93,9.81-16.57s-3.7-16.73-9.81-16.73h-14.96v33.29h14.96Z"/>
              <path class="st0" d="M196.3,298.04v18.5h-45.2v-18.5h10.62v-77.37h-10.62v-18.5h48.74c21.23,0,34.58,4.34,34.58,36.83,0,24.45-7.24,30.24-22.04,32.97l15.92,26.06h10.45v18.5h-27.5l-23.97-43.59h-.96v25.09h9.97ZM199.84,255.26c5.95,0,9.81-1.45,9.81-16.25s-3.86-16.73-9.81-16.73h-13.51v32.97h13.51Z"/>
              <path class="st0" d="M251.47,316.54v-18.5h10.62v-77.37h-10.62v-18.5h77.37v32.01h-22.2v-11.9h-19.94v27.67h27.99v19.94h-27.99v26.38h21.07v-11.9h22.2v32.17h-78.49Z"/>
              <path class="st0" d="M458.48,220.68l5.15,77.37h8.69v18.5h-42.95v-18.5h9.33l-2.89-54.69-18.01,60.32h-18.98l-17.69-57.26-2.73,51.63h9.33v18.5h-43.27v-18.5h8.69l5.15-77.37h-10.78v-18.5h41.82l19.14,63.05,20.11-63.05h40.69v18.5h-10.78Z"/>
              <path class="st0" d="M604.37,220.68v-18.5h46v18.5h-10.62v52.92c0,31.85-9.33,44.39-38.76,44.39h-1.12c-30.56,0-38.76-14.15-38.76-44.39v-52.92h-10.78v-18.5h46v18.5h-10.62v52.92c0,16.41,2.89,24.29,14.15,24.29h1.12c10.62,0,14.15-6.76,14.15-24.29v-52.92h-10.78Z"/>
              <path class="st0" d="M776.47,220.68l5.15,77.37h8.69v18.5h-42.95v-18.5h9.33l-2.9-54.69-18.01,60.32h-18.98l-17.69-57.26-2.73,51.63h9.33v18.5h-43.27v-18.5h8.69l5.15-77.37h-10.78v-18.5h41.82l19.14,63.05,20.1-63.05h40.69v18.5h-10.78Z"/>
            </g>
            <g>
              <path class="st0" d="M503.36,288.11c.33-.51.53-.79.7-1.09,4.45-8.06,8.9-16.12,13.35-24.18,5.5-9.97,11-19.94,16.51-29.89.39-.71.6-1.35.18-2.53-1.98-5.56-3.9-11.15-5.84-16.73-.12-.35-.32-.67-.54-1.12-.28.46-.5.79-.69,1.14-6.11,11.08-12.23,22.16-18.34,33.24-3.81,6.91-7.63,13.81-11.42,20.76-.25.46-.5,1.3-.32,1.83,2.05,6.1,4.19,12.17,6.42,18.58ZM542.11,254c-.91,1.64-1.71,3.1-2.52,4.56-9.31,16.86-18.61,33.74-27.93,50.57-.44.79-.42,1.5-.04,2.58,1.74,4.89,3.41,9.8,5.14,14.7.09.25.2.5.31.74.38.8,1.53.89,1.96.12,0,0,0-.01,0-.02,9.75-17.65,19.49-35.32,29.26-52.96.47-.86.41-1.62.02-2.74-1.85-5.23-3.65-10.48-5.48-15.72-.19-.54-.41-1.07-.72-1.84ZM489.05,246.44c.28-.43.48-.7.65-1.01,5.28-9.56,10.55-19.13,15.83-28.69,4.64-8.41,9.29-16.82,13.91-25.25.24-.44.54-1.16.39-1.65-.79-2.54-1.71-5.05-2.61-7.63-.35.05-.59.05-.8.13-3.19,1.1-6.38,2.19-9.55,3.34-.41.15-.77.57-1.03,1.02-7.66,13.23-15.3,26.48-22.97,39.7-.42.72-.42,1.4-.06,2.43,1.89,5.34,3.73,10.7,5.6,16.05.17.48.39.94.65,1.57ZM489.89,176.11c-4.85,1.69-9.71,3.37-14.56,5.06-3.78,1.31-7.57,2.6-11.33,3.97-1.45.53-1.92,2.11-1.35,4,.57,1.9,2.01,3.07,3.54,2.86.27-.04.53-.14.79-.23,16.82-5.85,33.64-11.69,50.45-17.55.51-.18,1.01-.45,1.42-.85.83-.82.96-2.11.42-3.7-.52-1.54-1.63-2.61-2.76-2.6-.6,0-1.17.2-1.72.39-8.3,2.87-16.6,5.76-24.9,8.65ZM544.92,334.77c8.34-2.9,16.67-5.79,25.01-8.7.48-.17.97-.33,1.4-.61,1.01-.66,1.3-2.11.8-3.74-.49-1.6-1.59-2.75-2.81-2.83-.52-.03-1.04.07-1.52.23-16.82,5.83-33.65,11.68-50.46,17.54-.51.18-1.01.46-1.42.85-.83.79-.94,2.4-.35,3.88.58,1.48,1.73,2.49,2.84,2.42.55-.04,1.08-.22,1.6-.4,8.3-2.88,16.6-5.76,24.9-8.65ZM493.81,260.39c.31-.46.48-.66.6-.9,10.01-18.14,20.02-36.29,30.02-54.44.16-.3.38-.78.28-1.1-.51-1.65-1.11-3.28-1.76-5.16-.39.65-.62,1.02-.84,1.42-3.72,6.74-7.44,13.49-11.16,20.23-6.19,11.23-12.39,22.46-18.56,33.71-.19.35-.35.98-.23,1.42.44,1.52,1.01,3.01,1.64,4.81ZM537.36,240.14c-.35.55-.55.83-.72,1.15-2.1,3.81-4.2,7.63-6.3,11.44-7.84,14.21-15.69,28.42-23.52,42.65-.19.34-.46.85-.35,1.21.49,1.66,1.11,3.29,1.76,5.16.46-.77.8-1.29,1.1-1.84,5.32-9.64,10.64-19.28,15.95-28.93,4.48-8.14,8.97-16.27,13.44-24.44.21-.39.43-1.06.3-1.53-.42-1.52-1.01-3.02-1.65-4.85ZM556.55,295.19c-4.56,8.27-8.99,16.31-13.6,24.66,6.83-2.37,13.28-4.62,19.78-6.87-2.05-5.89-4.04-11.63-6.18-17.78ZM527.85,324.82c.07.12.14.25.22.37,1.58-.55,3.19-1.03,4.74-1.69.58-.25,1.12-.75,1.49-1.37,1.76-3.04,3.45-6.16,5.16-9.25,4.54-8.22,9.07-16.44,13.59-24.68.24-.44.53-1.14.39-1.65-.42-1.57-1.04-3.11-1.7-5.02-8.06,14.61-15.98,28.95-23.89,43.3ZM496.42,189.77c-.09-.13-.17-.27-.26-.4-2.1.73-4.21,1.44-6.29,2.21-.27.1-.5.41-.67.71-3.75,6.77-7.5,13.56-11.23,20.37-.19.35-.35.99-.22,1.44.46,1.57,1.05,3.12,1.73,5.06,5.75-9.97,11.35-19.67,16.95-29.38ZM474.64,205.34c1.92-3.49,3.7-6.72,5.67-10.29-2.99,1.04-5.61,1.95-8.25,2.87.85,2.44,1.64,4.72,2.58,7.42Z"/>
              <path class="st0" d="M503.36,288.11c-2.23-6.41-4.36-12.48-6.42-18.58-.18-.53.07-1.37.32-1.83,3.79-6.94,7.61-13.84,11.42-20.76,6.11-11.08,12.22-22.16,18.34-33.24.2-.35.41-.68.69-1.14.22.45.42.77.54,1.12,1.95,5.58,3.86,11.16,5.84,16.73.42,1.18.21,1.82-.18,2.53-5.51,9.96-11.01,19.93-16.51,29.89-4.45,8.06-8.9,16.12-13.35,24.18-.17.31-.37.58-.7,1.09Z"/>
              <path class="st0" d="M542.11,254c.3.77.53,1.3.72,1.84,1.83,5.24,3.63,10.49,5.48,15.72.39,1.12.46,1.88-.02,2.74-9.77,17.63-19.5,35.31-29.26,52.96,0,0,0,.01,0,.02-.43.77-1.58.68-1.96-.12-.11-.24-.22-.49-.31-.74-1.73-4.89-3.4-9.81-5.14-14.7-.38-1.08-.4-1.79.04-2.58,9.33-16.84,18.63-33.71,27.93-50.57.8-1.46,1.61-2.91,2.52-4.56Z"/>
              <path class="st0" d="M489.05,246.44c-.26-.63-.48-1.09-.65-1.57-1.87-5.35-3.71-10.71-5.6-16.05-.36-1.03-.36-1.71.06-2.43,7.67-13.22,15.31-26.47,22.97-39.7.26-.45.62-.87,1.03-1.02,3.17-1.15,6.36-2.24,9.55-3.34.21-.07.45-.07.8-.13.9,2.58,1.82,5.09,2.61,7.63.15.48-.15,1.21-.39,1.65-4.62,8.43-9.27,16.84-13.91,25.25-5.28,9.56-10.55,19.13-15.83,28.69-.17.31-.37.58-.65,1.01Z"/>
              <path class="st0" d="M489.89,176.11c8.3-2.88,16.6-5.77,24.9-8.65.55-.19,1.12-.39,1.72-.39,1.13-.01,2.24,1.06,2.76,2.6.53,1.59.41,2.88-.42,3.7-.41.4-.91.67-1.42.85-16.81,5.86-33.63,11.71-50.45,17.55-.26.09-.52.19-.79.23-1.52.21-2.97-.96-3.54-2.86-.57-1.9-.1-3.48,1.35-4,3.76-1.37,7.55-2.65,11.33-3.97,4.85-1.69,9.71-3.37,14.56-5.06Z"/>
              <path class="st0" d="M544.92,334.77c-8.3,2.89-16.6,5.77-24.9,8.65-.52.18-1.04.37-1.6.4-1.11.08-2.26-.94-2.84-2.42-.59-1.48-.48-3.09.35-3.88.41-.39.91-.67,1.42-.85,16.81-5.86,33.64-11.71,50.46-17.54.48-.16.99-.26,1.52-.23,1.22.08,2.32,1.23,2.81,2.83.49,1.63.2,3.08-.8,3.74-.43.28-.92.44-1.4.61-8.33,2.9-16.67,5.8-25.01,8.7Z"/>
              <path class="st0" d="M493.81,260.39c-.63-1.8-1.2-3.29-1.64-4.81-.13-.44.04-1.07.23-1.42,6.17-11.25,12.37-22.48,18.56-33.71,3.72-6.75,7.44-13.49,11.16-20.23.22-.39.45-.76.84-1.42.65,1.87,1.25,3.5,1.76,5.16.1.32-.12.8-.28,1.1-10,18.16-20.01,36.3-30.02,54.44-.13.23-.29.43-.6.9Z"/>
              <path class="st0" d="M537.36,240.14c.64,1.84,1.22,3.33,1.65,4.85.13.47-.08,1.14-.3,1.53-4.46,8.16-8.95,16.3-13.44,24.44-5.32,9.65-10.63,19.29-15.95,28.93-.3.55-.64,1.07-1.1,1.84-.65-1.86-1.26-3.5-1.76-5.16-.11-.35.17-.87.35-1.21,7.83-14.22,15.68-28.43,23.52-42.65,2.1-3.81,4.2-7.63,6.3-11.44.17-.31.37-.59.72-1.15Z"/>
              <path class="st0" d="M556.55,295.19c2.14,6.15,4.13,11.89,6.18,17.78-6.49,2.26-12.95,4.5-19.78,6.87,4.6-8.35,9.03-16.38,13.6-24.66Z"/>
              <path class="st0" d="M496.42,189.77c-5.6,9.71-11.2,19.41-16.95,29.38-.68-1.94-1.27-3.49-1.73-5.06-.13-.44.03-1.08.22-1.44,3.73-6.81,7.47-13.59,11.23-20.37.17-.31.4-.61.67-.71,2.09-.77,4.19-1.48,6.29-2.21.09.13.17.27.26.4Z"/>
              <path class="st0" d="M474.64,205.34c-.94-2.7-1.73-4.98-2.58-7.42,2.64-.92,5.26-1.83,8.25-2.87-1.96,3.56-3.74,6.8-5.67,10.29Z"/>
            </g>
          </g>
        </g>
      </g>
    </g>
  </g>

</svg>